<?xml version="1.0" encoding="utf-8"?>
<!-- Generator: Adobe Illustrator 15.0.0, SVG Export Plug-In  -->
<!DOCTYPE svg PUBLIC "-//W3C//DTD SVG 1.1//EN" "http://www.w3.org/Graphics/SVG/1.1/DTD/svg11.dtd" [
	<!ENTITY ns_flows "http://ns.adobe.com/Flows/1.0/">
]>
<svg version="1.1"
	 xmlns="http://www.w3.org/2000/svg" xmlns:xlink="http://www.w3.org/1999/xlink" xmlns:a="http://ns.adobe.com/AdobeSVGViewerExtensions/3.0/"
	 x="0px" y="0px" width="256px" height="57px" viewBox="-0.554 -0.955 256 57" enable-background="new -0.554 -0.955 256 57"
	 xml:space="preserve">
<defs>
</defs>
<path fill="#FFFFFF" d="M9.646,51.995h0.872v-3.04H2.703v0.857h6.943V51.995z M9.386,52.249v-2.181H2.445v-1.369h0.248l0.785-2.234
	c0.075-0.247,0.3-0.422,0.572-0.422c0.271,0,0.499,0.179,0.575,0.422l0.784,2.234h1.987c-0.934-0.348-1.6-1.249-1.6-2.309
	c0-0.511,0.156-0.984,0.421-1.376c0.143-0.258,0.401-0.497,0.64-0.647c0.392-0.274,0.871-0.438,1.386-0.438
	c0.123,0,0.247,0.011,0.364,0.027c0.34,0.019,0.593,0.128,0.848,0.284l0.273,0.18c0.221,0.162,0.409,0.368,0.559,0.602
	c0.217,0.286,0.382,0.608,0.382,0.913v0.107c0.012,0.111,0.025,0.23,0.025,0.348c0,0.439-0.118,0.868-0.323,1.227
	c-0.279,0.501-0.732,0.882-1.27,1.082h1.674v3.55H9.386z M3.033,48.699H5.07l-1.02-1.375L3.033,48.699z M3.559,47.001l-0.37,1.058
	l0.629-0.854C3.718,47.162,3.625,47.088,3.559,47.001 M4.05,46.298c-0.161,0-0.288,0.109-0.331,0.254l-0.018,0.095
	c0,0.191,0.159,0.349,0.348,0.349c0.189,0,0.345-0.155,0.345-0.349l-0.014-0.095C4.343,46.401,4.21,46.298,4.05,46.298
	 M4.538,47.001c-0.061,0.087-0.151,0.161-0.26,0.204l0.637,0.854L4.538,47.001z M7.046,45.893c-0.102-0.252-0.266-0.638-0.113-0.811
	c0.146-0.13,0.307-0.06,0.44,0.035l0.135,0.105l0.107-0.056c0.099-0.139,0.19-0.276,0.363-0.328L7.97,44.716l-0.022-0.107
	c-0.296,0.089-0.533,0.111-0.772-0.13l-0.139,0.074c-0.195,0.115-0.467,0.307-0.593,0.581c-0.025,0.056-0.048,0.119-0.06,0.186
	c-0.047,0.251,0.219,0.371,0.403,0.455l0.199,0.083L7.046,45.893z M7.857,46.511c-0.122-0.085-0.353-0.157-0.51-0.157
	c-0.029,0.188-0.122,0.396,0.023,0.608c0.13,0.186,0.256,0.266,0.303,0.516c-0.004,0.104-0.025,0.62,0.032,0.874l0.024-0.19
	c0.014-0.158,0.037-0.366,0.166-0.521l0.09-0.095l0.088-0.078l0.153-0.156c0.081-0.1,0.141-0.217,0.141-0.398
	c0-0.084-0.06-0.154-0.168-0.223l-0.18-0.09L7.857,46.511z M7.473,48.456c-0.041-0.126-0.049-0.274-0.059-0.418
	c-0.013-0.28,0.006-0.547,0.006-0.547c-0.084-0.418-0.596-0.327-0.32-1.27l-0.22-0.125l-0.199-0.089
	c-0.134-0.06-0.288-0.139-0.397-0.25c-0.041-0.043-0.072-0.084-0.101-0.123c-0.084,0.234-0.131,0.49-0.131,0.756
	C6.053,47.333,6.643,48.139,7.473,48.456 M9.195,44.397c-0.198-0.106-0.332-0.169-0.557-0.183c0.073,0.109,0.118,0.238,0.17,0.36
	c0.101,0,0.15-0.037,0.255-0.101L9.195,44.397z M10.017,45.089l-0.21-0.239l-0.088,0.253c-0.061,0.237-0.107,0.534-0.049,0.839
	c0.193,0,0.423-0.024,0.618-0.049c0.042,0.017,0.074,0.037,0.108,0.062C10.33,45.637,10.201,45.344,10.017,45.089 M10.212,46.142
	l-0.217,0.037c-0.179,0.019-0.356,0.024-0.537,0c-0.137-0.548-0.069-1.03,0.151-1.511L9.46,44.559l-0.11,0.046l-0.151,0.093
	c-0.113,0.06-0.243,0.138-0.421,0.138c-0.057,0-0.104-0.024-0.132-0.052l-0.064-0.091c-0.144-0.344-0.168-0.42-0.338-0.505
	c-0.289,0-0.571,0.06-0.825,0.161c0.177,0.136,0.279,0.026,0.612,0.026c0.076,0.022,0.113,0.05,0.131,0.093l0.056,0.217l0.017,0.266
	v0.126H8.111c-0.141,0-0.217,0.142-0.288,0.243c-0.123,0.132-0.193,0.186-0.297,0.186c-0.045,0-0.081-0.017-0.102-0.035
	l-0.201-0.145l-0.097-0.058l0.011,0.111c0.057,0.247,0.177,0.497,0.292,0.722c0.193,0.021,0.434,0.103,0.578,0.204l0.12,0.06
	l0.202,0.107c0.133,0.08,0.293,0.218,0.293,0.44c0,0.404-0.203,0.573-0.463,0.814c-0.14,0.161-0.165,0.284-0.178,0.46l-0.03,0.253
	l-0.036,0.13c0.108,0.019,0.221,0.022,0.33,0.022c0.804,0,1.502-0.426,1.885-1.071c0.02-0.178,0.093-0.818,0.093-1.095
	c0-0.062,0.013-0.144,0.005-0.223L10.212,46.142z M3.606,41.127c-0.076-0.427-0.093-0.445-0.093-0.445l0.296-0.284L3.388,40.34
	l-0.175-0.386l-0.182,0.397l-0.419,0.05l0.304,0.286l-0.079,0.417l0.367-0.202L3.606,41.127z M3.745,40.688l4.734,2.772l-0.13,0.225
	l-3.282-1.929l1.943,1.455l-0.15,0.204l-2.06-1.54l1.358,1.286l-0.174,0.186l-1.408-1.329l0.878,1.039l-0.197,0.166l-0.847-1.008
	l1.094,1.639l-0.214,0.143l-1.022-1.531l1.277,2.469l-0.228,0.118l-1.284-2.479l1.5,3.77l-0.241,0.091L3.18,41.104l-0.572,0.317
	l0.13-0.681l-0.492-0.464l0.674-0.08l0.293-0.633l0.285,0.621l0.672,0.097L3.745,40.688z"/>
<path fill="#FFFFFF" d="M6.31,32.798l0.608-0.284l-0.01-0.193H6.333L6.31,32.798z M6.93,32.792l-0.636,0.293l-0.01,0.338
	l0.656-0.308L6.93,32.792z M6.955,33.392l-0.685,0.332h0.703L6.955,33.392z M11.173,27.76l-1.438-3.27L8.29,27.767L11.173,27.76z
	 M9.736,29.331c0.756,0,1.372-0.567,1.438-1.287H8.29C8.357,28.764,8.977,29.331,9.736,29.331 M3.547,29.331
	c0.756,0,1.375-0.567,1.443-1.287H2.11C2.174,28.764,2.791,29.331,3.547,29.331 M2.11,27.76l2.88,0.006l-1.443-3.276L2.11,27.76z
	 M6.617,25.693l-0.267,5.918h0.53L6.617,25.693z M6.438,23.967l0.011-0.198H3.625v0.198H6.438z M6.791,23.769l0.006,0.198h2.843
	v-0.198H6.791z M6.086,32.068l1.066-0.006h0.972v-0.189H5.115v0.189L6.086,32.068z M6.617,35.108c-0.642,0-1.156-0.525-1.156-1.251
	v-0.134h0.555l0.061-1.403H4.863v-0.701h1.232l0.34-7.487H3.662l1.585,3.656v0.127c0,0.924-0.76,1.671-1.7,1.671
	c-0.933,0-1.701-0.748-1.701-1.671L1.83,27.803l1.636-3.756v-0.444h2.992l0.035-0.774h0.255l0.033,0.774h3.025v0.422l1.627,3.763
	v0.127c0,0.924-0.764,1.671-1.697,1.671c-0.94,0-1.706-0.748-1.706-1.671l-0.012-0.104l1.601-3.679H6.804l0.333,7.487H8.38v0.701
	H7.164l0.061,1.403h0.549v0.134C7.774,34.583,7.266,35.108,6.617,35.108 M6.617,34.857c0.458,0,0.845-0.341,0.898-0.874H5.724
	C5.78,34.517,6.167,34.857,6.617,34.857"/>
<path fill="#FFFFFF" d="M12.082,37.619c0,0.42,0.334,0.756,0.748,0.756c-0.262,0-0.544-0.069-0.805-0.179
	c-0.12-0.163-0.184-0.361-0.184-0.577c0-0.221,0.076-0.429,0.201-0.594c-0.506,0.219-0.819,0.594-0.819,0.604
	c0.284,0.287,0.535,0.45,0.802,0.567c0.26,0.109,0.542,0.179,0.805,0.179c0.264,0,0.544-0.069,0.806-0.177
	c0.271-0.119,0.521-0.282,0.71-0.472c0.104-0.104-0.209-0.447-0.709-0.672c0.117,0.16,0.181,0.356,0.181,0.564
	c0,0.216-0.064,0.414-0.182,0.579c-0.261,0.107-0.542,0.177-0.806,0.177c0.416,0,0.75-0.336,0.75-0.756
	c0-0.414-0.334-0.755-0.75-0.755C12.416,36.864,12.082,37.205,12.082,37.619 M14.647,37.73c-0.171,0.303-0.991,0.882-1.818,0.882
	c-0.801,0-1.593-0.544-1.802-0.854l-0.699,1.219h5.031L14.647,37.73z M11.398,37.118c0.342-0.264,0.875-0.509,1.431-0.49
	c0.585,0,1.165,0.295,1.52,0.57l-1.494-2.626L11.398,37.118z M15.657,38.998c0.242-0.447,0.375-0.959,0.375-1.505
	c0-1.593-1.156-2.914-2.67-3.161c-0.148,0.008-0.271,0-0.372-0.029L15.657,38.998z M10.159,39.223
	c0.568,0.893,1.558,1.478,2.681,1.478c1.129,0,2.123-0.585,2.689-1.478H10.159z M9.656,37.493c0,0.546,0.131,1.058,0.371,1.509
	l2.705-4.712C10.996,34.388,9.656,35.787,9.656,37.493 M12.635,34.032c-2.061-0.171-3.566,1.414-3.566,3.472
	c0,2.098,1.688,3.796,3.77,3.796c2.09,0,3.782-1.698,3.782-3.796c0-1.67-1.069-3.086-2.556-3.591
	c-0.1-0.021-0.158-0.054-0.217-0.101c-0.196-0.18-0.279-0.237-0.486-0.237c-0.242,0-0.439,0.128-0.484,0.256
	c0.069,0.21,0.218,0.264,0.515,0.249c1.633,0.266,2.897,1.696,2.897,3.413c0,1.913-1.542,3.461-3.45,3.461
	c-1.899,0-3.439-1.548-3.439-3.461C9.4,35.659,10.836,34.15,12.635,34.032 M25.682,53.075c0,0.772-0.619,1.394-1.385,1.394H14.027
	c-0.569-0.015-1.006,1.119-1.178,1.517c-0.182-0.423-0.611-1.531-1.213-1.517H1.392c-0.766,0-1.388-0.621-1.388-1.394L0,20.07h5.684
	l4.592-6.311l0.185-1.184L7.5,14.711l-0.147-0.196l3.155-2.273l0.098-0.627l-7.76,2.556l-0.145-0.435l7.77-2.563l-0.398-0.395H6.145
	v-0.238h3.69L8.862,9.577L2.731,7.55l0.146-0.434l6.032,1.993l1.35-0.194l-2.96-2.159l0.147-0.222l3.147,2.328l0.639-0.089
	l-4.773-6.59l0.373-0.269l4.773,6.593l0.26-0.515l-1.22-3.77l0.226-0.072l1.142,3.539l0.599-1.211V0h0.459v6.477l0.611,1.23
	l1.139-3.521l0.223,0.074l-1.211,3.751l0.253,0.51l4.754-6.635l0.372,0.268l-4.759,6.649l0.605,0.1l2.765-2.666L18,6.439
	l-2.613,2.516l1.218,0.198l6.185-2.037l0.146,0.434l-6.163,2.028l-0.978,0.963h3.77v0.238h-4.013l-0.371,0.365l7.726,2.592
	l-0.144,0.435l-7.722-2.586l0.104,0.604l3.363,1.816l-0.105,0.262l-3.207-1.746l0.216,1.326l4.475,6.22h5.794V53.075z M6.25,20.07
	l6.313-0.002l-0.004-6.979l-0.443,0.226l-1.221,3.766l-0.221-0.077l1.143-3.537l-1.204,0.609L6.25,20.07z M13.069,20.067h6.252
	l-4.336-6.03l-1.101-0.56l1.128,3.501l-0.223,0.073l-1.205-3.725l-0.516-0.264V20.067z M12.723,7.288l-0.866,1.746l0.866,1.206
	V7.288z M13.839,9.059l-0.884-1.773v2.99L13.839,9.059z M15.908,9.506L14.03,9.199l-0.87,1.202L15.908,9.506z M14.605,11.067
	l1.354-1.328l-2.721,0.885L14.605,11.067z M14.843,13.198l-0.309-1.906l-1.38-0.445L14.843,13.198z M12.955,12.491l1.712,0.868
	l-1.712-2.382V12.491z M11.017,13.355l1.706-0.864v-1.483L11.017,13.355z M11.111,11.317l-0.29,1.902l1.718-2.366L11.111,11.317z
	 M9.656,9.717l1.385,1.375l1.431-0.465L9.656,9.717z M11.661,9.176L9.651,9.465l2.893,0.936L11.661,9.176z M16.864,37.213h8.304
	V20.58H13.069v12.804c0.085-0.027,0.184-0.064,0.292-0.064c0.275,0,0.415,0.083,0.523,0.18c0.15,0.138,0.195,0.158,0.244,0.169
	C15.632,34.179,16.745,35.56,16.864,37.213 M13.103,41.55v12.927c0.267-0.313,0.567-0.529,0.932-0.523h10.262
	c0.48,0,0.871-0.39,0.871-0.878V37.727h-8.3C16.76,39.772,15.136,41.42,13.103,41.55 M8.818,37.727h-8.3v15.349
	c0,0.488,0.391,0.878,0.874,0.878h10.24c0.407-0.006,0.733,0.252,0.957,0.503V41.55C10.553,41.42,8.924,39.772,8.818,37.727
	 M0.518,37.213h8.305c0.131-2.088,1.674-3.524,3.756-3.51L12.567,20.58H0.518V37.213z M13.341,33.602
	c0.128,0.196,0.072,0.254,0,0.254C13.213,33.657,13.27,33.602,13.341,33.602"/>
<path fill="#FFFFFF" d="M20.052,32.056c0.042-0.206,0.101-0.405,0.158-0.605l-0.181-0.28l-0.189-0.313
	c-0.833,0.044-1.463-0.227-1.608-0.765c-0.132-0.482,0.087-0.839,0.433-1.083l-0.322-0.513c-0.178,0.002-0.358-0.004-0.532-0.047
	c-0.953-0.22-1.302-1.274-1.382-2.041c-0.026-0.252-0.003-0.547,0.051-0.848l-0.925-1.475c-1.277,0.24-0.986-0.96-0.264-1.419
	c0.761-0.477,1.754-0.309,1.224,0.801l0.466,0.758c0.045-0.061,0.09-0.109,0.132-0.143c1.458-1.217,2.647,1.181,1.71,1.735
	c-0.28,0.169-0.572,0.034-0.776-0.164l-0.051,0.12l0.443,0.73l0.332,0.544l0.106,0.172c0.677,0.061,1.458,0.071,1.417,0.911
	c-0.012,0.286-0.107,0.596-0.329,0.777l0.149,0.246l0.143,0.248c0.301,0.06,0.578,0.109,0.763,0.267
	c0.366,0.311,0.475,0.958,0.243,1.321l2.666,4.242l-0.352,0.353l-0.857-0.683c-0.037,0.221-0.124,0.468-0.338,0.495
	c-0.148,0.012-0.248-0.05-0.311-0.146l-0.062-0.134l-0.048-0.137c-0.231-0.624-0.691-0.232-0.787-0.956L21.14,33.72
	c-0.013-0.128-0.035-0.312-0.173-0.363l-0.104-0.03l-0.134-0.027C20.113,33.163,19.936,32.61,20.052,32.056 M19.992,29.446
	l-0.094-0.162l-0.344-0.544c-0.074-0.11-0.475-0.175-0.597-0.19l-0.299-0.032l0.457,0.738c0.121,0.112,0.362,0.154,0.626,0.177
	L19.992,29.446z M18.466,27.424c-0.17-0.041-0.317-0.097-0.441-0.171c-0.137-0.083-0.237-0.192-0.309-0.335
	c-0.1-0.243-0.119-0.414-0.111-0.575c-0.012-0.4,0.136-0.769,0.45-1.083c0.121,0.171,0.37,0.497,0.64,0.339
	c0.426-0.253-0.07-2.444-1.417-1.321c-0.264,0.219-0.676,1.359-0.593,2.102c0.08,0.759,0.41,1.644,1.18,1.824
	c0.647,0.15,1.458-0.18,1.989,0.48c0.25-0.318,0.346-1.087-0.26-1.114C19.198,27.549,18.798,27.508,18.466,27.424 M18.555,27.181
	L18.22,26.64l-0.335-0.546l-0.021,0.17c-0.006,0.182,0.021,0.365,0.085,0.545C18.037,26.984,18.206,27.108,18.555,27.181
	 M20.304,32.105c-0.083,0.414,0.008,0.841,0.48,0.944l0.132,0.026l0.145,0.044c0.244,0.097,0.305,0.329,0.334,0.566l0.032,0.307
	c0.073,0.534,0.524,0.219,0.775,0.899l0.043,0.136c0.163,0.276,0.232-0.286,0.235-0.369c0.008-0.845-0.501-0.744-0.539-1.399
	c-0.02-0.36,0.004-0.468-0.334-0.685c-0.427-0.236-0.874-0.461-1.205-0.828C20.366,31.86,20.331,31.979,20.304,32.105
	 M18.476,30.026c0.097,0.357,0.55,0.619,1.301,0.58l0.118-0.011l0.44-0.026c0.273-0.023,0.552-0.031,0.756,0.175
	c0.083-0.26,0.012-0.672-0.232-0.878c-0.45-0.383-1.723,0.107-2.091-0.632C18.534,29.405,18.39,29.705,18.476,30.026 M22.168,32.916
	l0.033,0.152l0.007,0.253c0.027,0.341,0.309,0.406,0.411,0.703c0.029,0.082,0.053,0.18,0.068,0.272l0.045,0.292l0.874,0.604
	L22.168,32.916z M20.493,31.446c0.26,0.54,1.001,0.663,1.421,1.062l-1-1.588c-0.137-0.16-0.668-0.104-0.794-0.09l0.125,0.204
	l0.156,0.247L20.493,31.446z M15.677,23.796l0.885,1.412c0.051-0.181,0.101-0.341,0.157-0.474l0.117-0.265l-0.617-0.99
	c0.769-1.471-1.28-0.69-1.292,0.136C14.916,23.977,15.469,23.846,15.677,23.796 M18.395,24.653c0.067-0.026,0.144,0.026,0.173,0.108
	c0.035,0.086,0,0.172-0.061,0.193c-0.068,0.026-0.143-0.021-0.174-0.107C18.304,24.767,18.333,24.68,18.395,24.653"/>
<path fill="#FFFFFF" d="M12.66,37.629c0-0.095,0.073-0.169,0.17-0.169c0.093,0,0.17,0.074,0.17,0.169
	c0,0.093-0.078,0.172-0.17,0.172C12.732,37.801,12.66,37.722,12.66,37.629"/>
<path fill="#FFFFFF" d="M22.676,47.836l0.21-0.12l-0.21-0.076V47.836z M22.679,47.374l1.194,0.468l0.151,0.06l0.106,0.04
	l-0.149,0.27c0,0-0.068,0.223-0.033,0.511c0.036,0.194,0.373,0.271,0.373,0.271l-2.877,3.144l-0.126-0.031
	c-0.887-0.278-6.675-2.104-7.114-2.279c-0.103-0.215-0.121-0.404-0.128-0.601l0.007-0.275l0.018-0.116
	c0.078-0.321,0.499-0.628,0.725-0.88l0.01-0.171l0.019-0.109l0.628-0.67v-2.858l0.121-0.072c0.222-0.163,0.36-0.425,0.418-0.688
	l0.124-0.097c0.343,0,0.698-0.083,1.039-0.173l0.489-0.12c0.156-0.035,0.308-0.056,0.449-0.056l0.134,0.004
	c-0.129-0.142-0.224-0.321-0.295-0.531l0.161-0.006c-0.078-0.1-0.16-0.243-0.097-0.408c0.056-0.13,0.216-0.091,0.216-0.091
	c-0.028-0.217,0.006-0.34,0.107-0.532l0.225,0.097c0.087-0.22,0.274-0.375,0.485-0.451l0.112-0.032l0.108,0.021
	c0.229,0.074,0.411,0.243,0.508,0.466l0.233-0.1c0.096,0.192,0.132,0.315,0.101,0.532c0.186-0.033,0.222,0.091,0.222,0.091
	c0.06,0.165-0.02,0.309-0.097,0.408l0.169,0.006c0,0-0.083,0.217-0.126,0.286L20.17,42.86c0.122-0.019,0.24-0.026,0.351-0.026
	c0.569,0,1.101,0.5,1.501,0.36l0.179-0.062c0.078,0.26,0.174,0.338,0.243,0.381l0.231,0.06L22.679,47.374z M21.47,51.735
	l2.419-2.652c0,0-0.202,0.002-0.293-0.128c-0.081-0.124-0.072-0.262-0.038-0.4l-2.078,2.221
	C21.461,50.789,21.44,51.407,21.47,51.735 M21.167,50.126l1.977-2.249l-1.906,1.063l-0.041,0.196
	C21.155,49.449,21.135,49.802,21.167,50.126 M19.231,43.388l-0.022,3.86c0.631-0.282,2.114,0.083,2.753,0.135
	c-0.005-0.621-0.029-3.201-0.028-3.906c-0.49,0.06-0.885-0.39-1.414-0.39C20.136,43.087,19.61,43.246,19.231,43.388 M19.045,47.248
	l0.024-3.864L18.798,43.3c-0.194-0.054-0.438-0.105-0.676-0.105c-0.115,0-0.245,0.017-0.394,0.052l-0.482,0.113
	c-0.301,0.084-0.634,0.16-0.971,0.179l0.006,3.869C16.746,47.311,18.405,46.966,19.045,47.248 M16.581,47.609l2.163-0.157
	C18.292,47.324,17.31,47.467,16.581,47.609 M16.022,47.646v-3.638l-0.095,0.115c-0.065,0.07-0.128,0.121-0.172,0.152l-0.012,3.395
	L16.022,47.646z M20.419,47.42c-0.352-0.023-0.682-0.025-0.923,0.006l1.599,0.101C20.87,47.489,20.647,47.448,20.419,47.42
	 M22.417,43.779l-0.1-0.045l-0.095,3.827l0.194,0.015V43.779z M20.008,42.648l-0.512-0.021l0.403-0.254l0.111-0.093l-0.254-0.05
	c0,0,0.095-0.271,0.112-0.364l0.006-0.152l-0.254,0.104c-0.068-0.262-0.135-0.48-0.42-0.568c-0.341,0.115-0.394,0.284-0.445,0.57
	l-0.264-0.106l0.005,0.152c0.015,0.093,0.113,0.369,0.113,0.369l-0.348-0.054l0.203,0.191l0.41,0.254l-0.526,0.021l0.091,0.119
	c0.134,0.145,0.359,0.291,0.721,0.301c0.366-0.01,0.6-0.163,0.744-0.305L20.008,42.648z M19.621,49.835
	c-0.017-0.119-0.032-0.367-0.027-0.531l0.021-0.228c0.03-0.111,0.04-0.146,0.06-0.169l-0.09-0.022l-0.046,0.191l-0.021,0.291
	l0.009,0.28l0.026,0.161L19.621,49.835z M19.37,51.232c-0.019-0.29-0.036-0.882,0.084-1.022l0.167-0.169L19.478,50l-0.216,0.227
	c-0.099,0.117-0.08,0.942-0.072,0.946L19.37,51.232z M19.54,51.249c0.764,0.284,1.385,0.464,1.691,0.561
	c-0.056-0.404-0.059-1.108,0.076-1.22l2.378-2.544l-0.259-0.109l-2.233,2.535c-0.079-0.006-0.083-0.012-0.21-0.045l-1.15-0.342
	l-0.248,0.247C19.54,50.381,19.502,50.926,19.54,51.249 M16.066,50.169c-0.072-0.384-0.053-0.895,0.04-1.004l0.134-0.13
	l-0.138-0.039l-0.186,0.189c-0.084,0.093-0.053,0.753-0.037,0.924L16.066,50.169z M16.812,50.408
	c-0.064-0.377-0.012-0.909,0.081-1.022l0.123-0.117l-0.143-0.044l-0.172,0.184c-0.084,0.102-0.08,0.765-0.072,0.942L16.812,50.408z
	 M16.032,48.786c-0.019-0.12-0.035-0.306-0.03-0.462l0.021-0.227c0.026-0.111,0.038-0.145,0.06-0.167l-0.104,0.017L15.943,48.1
	l-0.015,0.291l0.009,0.354L16.032,48.786z M16.615,48.94c-0.019-0.113-0.027-0.312-0.019-0.474l0.021-0.31
	c0.053-0.05,0.129-0.154,0.15-0.175l-0.088-0.019l-0.137,0.173l-0.025,0.396l0.016,0.278l0.013,0.115L16.615,48.94z M16.406,47.867
	l-0.191,0.193l-0.032,0.27c-0.009,0.155-0.007,0.388,0.009,0.497l0.17,0.058l-0.02-0.354l0.02-0.312l0.021-0.121l0.19-0.245
	L16.406,47.867z M15.76,48.689l-0.012-0.304l0.023-0.309l0.02-0.122l-0.308-0.014v-0.617l-0.397,0.406l-0.012,0.334
	c0.008,0.165,0.027,0.336,0.039,0.445L15.76,48.689z M15.713,50.054c-0.058-0.345-0.009-0.893,0.07-0.987l0.133-0.132l-1.026-0.315
	l-0.041-0.305l-0.503,0.579l-0.012,0.327c0.001,0.146,0.017,0.297,0.033,0.39L15.713,50.054z M16.469,50.299
	c-0.053-0.349,0.026-0.919,0.103-1.01l0.131-0.128l-0.255-0.076l-0.209,0.204c-0.047,0.054-0.084,0.598-0.045,0.917L16.469,50.299z
	 M18.466,50.944l0.188,0.062L18.466,50.944z M18.654,51.006c-0.021-0.295-0.038-0.876,0.085-1.019l0.165-0.169l-0.142-0.039
	l-0.215,0.227c-0.103,0.12-0.09,0.934-0.081,0.938L18.654,51.006z M19.035,49.672c-0.013-0.119-0.04-0.36-0.037-0.511l0.023-0.227
	c0.025-0.113,0.04-0.148,0.059-0.169l-0.087-0.022l-0.048,0.191l-0.021,0.29l0.011,0.28l0.02,0.133L19.035,49.672z M18.306,50.884
	c-0.054-0.334,0.035-0.908,0.112-0.995l0.161-0.173l-1.355-0.404l-0.203,0.2c-0.041,0.054-0.077,0.602-0.039,0.923L18.306,50.884z
	 M19.103,49.87l-0.234,0.239c-0.048,0.049-0.082,0.596-0.045,0.917l0.208,0.089c-0.06-0.334,0.02-0.913,0.102-1.006l0.165-0.18
	L19.103,49.87z M19.214,48.896l-0.035,0.27c-0.004,0.157,0,0.321,0.01,0.431l0.025,0.128l0.155,0.056l-0.017-0.113l-0.013-0.299
	l0.021-0.312l0.022-0.125l0.256-0.312l0.46,0.126l-0.295,0.292l-0.032,0.272c-0.009,0.14-0.003,0.466,0.014,0.596l1.139,0.332
	c-0.049-0.317-0.018-0.891,0.017-1.138l0.036-0.196c0.038-0.093,0.056-0.134,0.108-0.158l1.59-0.909l-3.075-0.104
	c-0.056,0.025-0.141,0.054-0.243,0.079c-0.069,0.021-0.144,0.03-0.229,0.03l-0.127-0.019c-0.123-0.017-0.225-0.047-0.326-0.107
	l-1.841,0.12l0.262,0.072l-0.291,0.295l-0.036,0.273c-0.004,0.15-0.004,0.319,0.016,0.427l0.021,0.122l0.546,0.154l1.42,0.416
	l-0.025-0.371l0.019-0.313l0.022-0.122l0.255-0.313l0.459,0.124L19.214,48.896z M21.365,44.143
	c-0.245-0.009-0.511-0.083-0.741-0.128c-0.265-0.048-0.54-0.066-0.826,0.031l-0.052-0.159c0.321-0.107,0.629-0.087,0.908-0.035
	c0.216,0.044,0.484,0.117,0.715,0.126L21.365,44.143z M21.365,44.629c-0.245-0.006-0.511-0.08-0.741-0.132
	c-0.265-0.044-0.54-0.068-0.826,0.03l-0.052-0.156c0.321-0.105,0.632-0.082,0.908-0.033c0.216,0.046,0.487,0.122,0.715,0.126
	L21.365,44.629z M21.365,45.115c-0.245-0.004-0.511-0.08-0.741-0.13c-0.265-0.052-0.54-0.07-0.826,0.024l-0.047-0.156
	c0.321-0.107,0.627-0.08,0.903-0.029c0.216,0.048,0.487,0.126,0.715,0.126L21.365,45.115z M21.365,45.605
	c-0.245-0.006-0.511-0.082-0.741-0.136c-0.265-0.048-0.54-0.072-0.82,0.024l-0.053-0.154c0.321-0.111,0.629-0.085,0.903-0.029
	c0.207,0.042,0.496,0.126,0.715,0.133L21.365,45.605z M21.365,46.099c-0.241-0.011-0.514-0.091-0.741-0.141
	c-0.265-0.052-0.54-0.076-0.82,0.022l-0.053-0.158c0.321-0.107,0.629-0.078,0.903-0.024c0.197,0.041,0.504,0.13,0.715,0.138
	L21.365,46.099z M21.365,46.587c-0.241-0.009-0.514-0.091-0.741-0.145c-0.265-0.052-0.54-0.074-0.82,0.021l-0.053-0.158
	c0.321-0.104,0.629-0.081,0.905-0.022c0.179,0.041,0.509,0.134,0.716,0.136L21.365,46.587z M16.944,44.111
	c0.092,0,0.197-0.026,0.316-0.062l0.382-0.128c0.272-0.082,0.578-0.145,0.905-0.035l-0.052,0.159
	c-0.278-0.096-0.545-0.048-0.805,0.032l-0.382,0.128c-0.119,0.039-0.241,0.068-0.362,0.07L16.944,44.111z M16.939,44.579
	c0.097-0.004,0.2-0.03,0.321-0.063l0.379-0.122c0.275-0.076,0.581-0.128,0.905-0.022l-0.05,0.156
	c-0.281-0.095-0.545-0.049-0.809,0.025l-0.38,0.121c-0.122,0.035-0.243,0.064-0.361,0.068L16.939,44.579z M16.937,45.041
	c0.094-0.002,0.203-0.022,0.322-0.06l0.381-0.113c0.275-0.072,0.581-0.122,0.905-0.015l-0.05,0.156
	c-0.281-0.095-0.549-0.054-0.815,0.019l-0.375,0.111c-0.125,0.037-0.247,0.063-0.361,0.064L16.937,45.041z M16.933,45.505
	c0.093,0,0.201-0.027,0.321-0.06l0.385-0.102c0.275-0.07,0.581-0.115,0.905-0.004l-0.05,0.154c-0.282-0.097-0.556-0.058-0.818,0.005
	l-0.381,0.104c-0.12,0.037-0.243,0.064-0.356,0.066L16.933,45.505z M16.928,45.971c0.096-0.006,0.204-0.024,0.323-0.058l0.383-0.097
	c0.28-0.064,0.585-0.102,0.91,0.006l-0.05,0.158c-0.282-0.099-0.557-0.063-0.821-0.004l-0.378,0.095
	c-0.125,0.035-0.243,0.058-0.362,0.063L16.928,45.971z M16.925,46.433c0.199-0.005,0.544-0.104,0.709-0.145
	c0.28-0.058,0.585-0.091,0.909,0.017l-0.048,0.158c-0.289-0.095-0.562-0.067-0.825-0.012c-0.207,0.049-0.512,0.14-0.741,0.146
	L16.925,46.433z"/>
<path fill="#FFFFFF" d="M33.344,48.545c0,2.29,0.594,3.382,1.359,4.124c1.116,1.047,2.701,1.111,3.233,1.111
	c0.927,0,2.102-0.155,3.231-1.161c1.253-1.11,1.442-2.994,1.442-4.685v-1.678c0-2.45,0-2.888,0.032-3.389
	c0.029-0.548,0.153-0.815,0.581-0.895c0.186-0.047,0.281-0.047,0.393-0.047c0.062,0,0.125-0.033,0.125-0.095
	c0-0.093-0.081-0.126-0.252-0.126c-0.474,0-1.206,0.046-1.316,0.046c-0.097,0-0.958-0.046-1.665-0.046
	c-0.171,0-0.25,0.033-0.25,0.126c0,0.062,0.063,0.095,0.124,0.095c0.146,0,0.408,0.015,0.537,0.047
	c0.514,0.107,0.639,0.359,0.67,0.895c0.031,0.501,0.031,0.938,0.031,3.389v1.956c0,1.612-0.188,2.949-0.909,3.844
	c-0.563,0.672-1.504,1.128-2.462,1.128c-0.893,0-1.598-0.139-2.368-0.859c-0.67-0.649-1.178-1.616-1.178-3.877v-2.191
	c0-2.45,0-2.888,0.034-3.389c0.031-0.548,0.161-0.832,0.581-0.895c0.189-0.032,0.28-0.047,0.391-0.047
	c0.064,0,0.128-0.033,0.128-0.095c0-0.093-0.08-0.126-0.251-0.126c-0.47,0-1.413,0.046-1.554,0.046c-0.143,0-1.1-0.046-1.806-0.046
	c-0.169,0-0.25,0.033-0.25,0.126c0,0.062,0.062,0.095,0.123,0.095c0.148,0,0.412,0.015,0.538,0.047
	c0.515,0.107,0.645,0.359,0.672,0.895c0.033,0.501,0.033,0.938,0.033,3.389V48.545z"/>
<path fill="#FFFFFF" d="M48.14,43.914c0.5,0.568,2.271,2.543,4.087,4.503c1.658,1.787,3.913,4.094,4.087,4.252
	c0.831,0.831,1.019,1,1.148,1c0.112,0,0.141-0.078,0.141-1.111l0.033-9.188c0-0.939,0.063-1.288,0.583-1.397
	c0.187-0.045,0.293-0.045,0.367-0.045c0.113,0,0.18-0.048,0.18-0.111c0-0.095-0.108-0.109-0.284-0.109
	c-0.646,0-1.162,0.046-1.336,0.046c-0.176,0-0.931-0.046-1.633-0.046c-0.186,0-0.311,0.015-0.311,0.109
	c0,0.063,0.013,0.111,0.125,0.111c0.123,0,0.486,0.015,0.768,0.074c0.48,0.13,0.593,0.474,0.608,1.494l0.174,7.966
	c-0.502-0.519-2.208-2.432-3.755-4.095c-2.416-2.587-4.747-5.111-4.982-5.378c-0.159-0.156-0.426-0.501-0.554-0.501
	c-0.124,0-0.175,0.172-0.175,0.783l-0.01,8.984c0,1.429-0.08,1.882-0.473,1.993c-0.235,0.078-0.518,0.091-0.643,0.091
	c-0.08,0-0.127,0.035-0.127,0.099c0,0.109,0.095,0.124,0.252,0.124c0.706,0,1.369-0.05,1.508-0.05c0.144,0,0.773,0.05,1.665,0.05
	c0.191,0,0.284-0.033,0.284-0.124c0-0.063-0.049-0.099-0.125-0.099c-0.142,0-0.487-0.013-0.786-0.091
	c-0.42-0.126-0.58-0.533-0.609-1.817L48.14,43.914z"/>
<path fill="#FFFFFF" d="M64.728,46.253c0-2.446,0-2.884,0.032-3.385c0.033-0.55,0.154-0.817,0.579-0.896
	c0.189-0.03,0.286-0.045,0.393-0.045c0.062,0,0.126-0.033,0.126-0.095c0-0.093-0.078-0.126-0.253-0.126
	c-0.469,0-1.457,0.043-1.536,0.043c-0.078,0-1.066-0.043-1.582-0.043c-0.174,0-0.252,0.033-0.252,0.126
	c0,0.062,0.063,0.095,0.124,0.095c0.11,0,0.313,0.015,0.488,0.062c0.345,0.076,0.5,0.345,0.535,0.88
	c0.029,0.501,0.029,0.938,0.029,3.385v2.76c0,1.507,0,2.745-0.077,3.405c-0.062,0.451-0.143,0.795-0.455,0.861
	c-0.144,0.026-0.329,0.06-0.47,0.06c-0.096,0-0.131,0.048-0.131,0.099c0,0.093,0.081,0.124,0.25,0.124
	c0.474,0,1.462-0.045,1.54-0.045c0.079,0,1.066,0.045,1.928,0.045c0.172,0,0.25-0.045,0.25-0.124c0-0.051-0.029-0.099-0.123-0.099
	c-0.141,0-0.487-0.033-0.708-0.06c-0.469-0.066-0.56-0.41-0.613-0.861c-0.075-0.66-0.075-1.898-0.075-3.405V46.253z"/>
<path fill="#FFFFFF" d="M71.348,43.621c-0.234-0.614-0.421-1.101-0.421-1.303c0-0.111,0.032-0.237,0.206-0.313
	c0.141-0.063,0.421-0.078,0.592-0.078c0.11,0,0.159-0.033,0.159-0.111c0-0.076-0.142-0.107-0.426-0.107
	c-0.594,0-1.298,0.044-1.456,0.044c-0.189,0-1.083-0.044-1.83-0.044c-0.255,0-0.413,0.017-0.413,0.107
	c0,0.06,0.032,0.111,0.128,0.111c0.091,0,0.361,0,0.592,0.062c0.551,0.157,0.784,0.33,1.129,1.208l3.84,9.611
	c0.301,0.758,0.381,0.973,0.567,0.973c0.155,0,0.216-0.252,0.657-1.191c0.362-0.769,1.066-2.459,2.027-4.753
	c0.796-1.927,1.583-3.812,1.753-4.248c0.423-1.067,0.654-1.331,0.861-1.474c0.299-0.188,0.644-0.188,0.754-0.188
	c0.122,0,0.184-0.033,0.184-0.111c0-0.076-0.089-0.107-0.264-0.107c-0.453,0-1.131,0.044-1.224,0.044
	c-0.188,0-0.908-0.044-1.535-0.044c-0.252,0-0.347,0.031-0.347,0.124c0,0.08,0.081,0.095,0.174,0.095c0.173,0,0.408,0,0.594,0.062
	c0.159,0.078,0.206,0.237,0.206,0.363c0,0.138-0.064,0.358-0.14,0.598c-0.348,1.125-2.447,6.6-3.356,8.702L71.348,43.621z"/>
<path fill="#FFFFFF" d="M83.24,49.013c0,1.507,0,2.745-0.081,3.405c-0.058,0.451-0.139,0.795-0.452,0.861
	c-0.139,0.028-0.33,0.06-0.471,0.06c-0.09,0-0.125,0.048-0.125,0.099c0,0.091,0.076,0.124,0.25,0.124
	c0.47,0,1.461-0.045,1.539-0.045c0.452,0,1.502,0.093,3.872,0.093c0.609,0,0.74,0,0.846-0.408c0.083-0.332,0.205-1.397,0.205-1.52
	c0-0.111,0-0.237-0.095-0.237c-0.079,0-0.11,0.064-0.14,0.237c-0.111,0.639-0.299,0.954-0.709,1.126
	c-0.403,0.171-1.094,0.171-1.501,0.171c-1.54,0-1.775-0.2-1.819-1.284c-0.017-0.328,0-2.149,0-2.682v-1.381
	c0-0.06,0.028-0.109,0.108-0.109c0.267,0,1.817,0.035,2.242,0.078c0.612,0.063,0.751,0.33,0.815,0.551
	c0.063,0.204,0.063,0.358,0.063,0.52c0,0.074,0.03,0.138,0.109,0.138c0.109,0,0.109-0.173,0.109-0.299
	c0-0.109,0.031-0.688,0.061-1.002c0.051-0.517,0.127-0.785,0.127-0.876c0-0.099-0.033-0.125-0.076-0.125
	c-0.064,0-0.126,0.08-0.239,0.199c-0.142,0.161-0.357,0.189-0.735,0.223c-0.359,0.031-2.289,0.031-2.492,0.031
	c-0.081,0-0.093-0.048-0.093-0.159v-4.324c0-0.108,0.028-0.158,0.093-0.158c0.17,0,1.883,0.015,2.145,0.05
	c0.849,0.093,1.006,0.278,1.115,0.529c0.08,0.189,0.094,0.453,0.094,0.563c0,0.126,0.031,0.202,0.129,0.202
	c0.06,0,0.091-0.089,0.107-0.167c0.03-0.189,0.062-0.88,0.075-1.034c0.051-0.441,0.132-0.629,0.132-0.74
	c0-0.076-0.02-0.139-0.069-0.139c-0.077,0-0.139,0.063-0.219,0.079c-0.125,0.028-0.374,0.06-0.675,0.078
	c-0.361,0.01-3.477,0.01-3.586,0.01c-0.078,0-1.069-0.041-1.774-0.041c-0.17,0-0.251,0.031-0.251,0.124
	c0,0.062,0.063,0.095,0.125,0.095c0.144,0,0.407,0.015,0.531,0.045c0.52,0.109,0.646,0.361,0.676,0.896
	c0.031,0.501,0.031,0.938,0.031,3.385V49.013z"/>
<path fill="#FFFFFF" d="M93.456,49.013c0,1.507,0,2.745-0.079,3.4c-0.064,0.46-0.14,0.8-0.455,0.866
	c-0.14,0.026-0.329,0.06-0.471,0.06c-0.095,0-0.123,0.048-0.123,0.099c0,0.093,0.076,0.122,0.249,0.122
	c0.472,0,1.455-0.046,1.476-0.046c0.078,0,1.068,0.046,1.928,0.046c0.174,0,0.25-0.046,0.25-0.122c0-0.051-0.032-0.099-0.121-0.099
	c-0.144,0-0.488-0.033-0.709-0.06c-0.469-0.066-0.561-0.406-0.61-0.866c-0.078-0.655-0.078-1.894-0.078-3.4v-0.375
	c0-0.078,0.029-0.126,0.112-0.126l1.926,0.029c0.092,0,0.143,0.03,0.205,0.097c0.315,0.408,1.048,1.459,1.709,2.32
	c0.892,1.175,1.443,1.942,2.12,2.305c0.404,0.221,0.794,0.297,1.674,0.297h1.114c0.283,0,0.375-0.029,0.375-0.122
	c0-0.051-0.061-0.099-0.143-0.099c-0.093,0-0.313,0-0.612-0.043c-0.388-0.064-1.063-0.237-1.909-1.132
	c-0.914-0.969-1.974-2.368-3.259-4.013c1.409-1.303,1.894-2.463,1.894-3.624c0-1.082-0.692-1.849-1.083-2.133
	c-0.832-0.596-1.88-0.688-2.868-0.688c-0.487,0-1.678,0.046-1.849,0.046c-0.084,0-1.067-0.046-1.773-0.046
	c-0.174,0-0.251,0.033-0.251,0.126c0,0.062,0.064,0.095,0.126,0.095c0.14,0,0.41,0.015,0.534,0.047
	c0.513,0.109,0.643,0.361,0.671,0.897c0.034,0.498,0.034,0.936,0.034,3.382V49.013z M94.709,42.489c0-0.095,0.047-0.154,0.127-0.188
	c0.153-0.045,0.578-0.095,1.046-0.095c1.677,0,2.717,1.175,2.717,3.141c0,1.186-0.408,2.039-0.959,2.41
	c-0.363,0.253-0.801,0.299-1.177,0.299c-0.69,0-1.413-0.109-1.642-0.25c-0.083-0.049-0.112-0.109-0.112-0.189V42.489z"/>
<path fill="#FFFFFF" d="M106.87,53.78c0.845,0,1.696-0.189,2.368-0.658c1.083-0.769,1.333-1.96,1.333-2.603
	c0-1.258-0.443-2.229-2.29-3.684l-0.441-0.348c-1.471-1.206-1.914-1.74-1.914-2.635c0-1.144,0.848-1.815,1.931-1.815
	c1.443,0,1.865,0.655,1.958,0.826c0.095,0.176,0.193,0.596,0.207,0.79c0.016,0.123,0.03,0.199,0.126,0.199
	c0.078,0,0.111-0.109,0.111-0.358c0-1.065,0.061-1.585,0.061-1.663c0-0.08-0.03-0.111-0.159-0.111c-0.123,0-0.251-0.015-0.546-0.076
	c-0.392-0.097-0.849-0.157-1.457-0.157c-1.996,0-3.247,1.145-3.247,2.82c0,1.067,0.375,2.04,2.039,3.402l0.702,0.581
	c1.352,1.115,1.806,1.74,1.806,2.822c0,1.004-0.741,2.083-2.246,2.083c-1.05,0-2.086-0.437-2.318-1.593
	c-0.051-0.221-0.051-0.441-0.051-0.585c0-0.124-0.014-0.174-0.108-0.174c-0.077,0-0.113,0.081-0.124,0.254
	c-0.019,0.251-0.08,0.878-0.08,1.661c0,0.427,0.017,0.486,0.236,0.598C105.412,53.671,106.131,53.78,106.87,53.78"/>
<path fill="#FFFFFF" d="M116.675,46.253c0-2.446,0-2.884,0.03-3.385c0.031-0.55,0.155-0.817,0.582-0.896
	c0.187-0.03,0.279-0.045,0.388-0.045c0.063,0,0.13-0.033,0.13-0.095c0-0.093-0.081-0.126-0.256-0.126
	c-0.468,0-1.458,0.043-1.532,0.043c-0.08,0-1.07-0.043-1.588-0.043c-0.168,0-0.248,0.033-0.248,0.126
	c0,0.062,0.06,0.095,0.123,0.095c0.111,0,0.313,0.015,0.488,0.062c0.342,0.076,0.501,0.345,0.531,0.88
	c0.032,0.501,0.032,0.938,0.032,3.385v2.76c0,1.507,0,2.745-0.078,3.405c-0.06,0.451-0.143,0.795-0.454,0.861
	c-0.139,0.026-0.331,0.06-0.469,0.06c-0.093,0-0.127,0.048-0.127,0.099c0,0.093,0.077,0.124,0.253,0.124
	c0.467,0,1.457-0.045,1.537-0.045c0.074,0,1.064,0.045,1.926,0.045c0.174,0,0.25-0.045,0.25-0.124c0-0.051-0.029-0.099-0.124-0.099
	c-0.143,0-0.484-0.033-0.708-0.06c-0.469-0.066-0.562-0.41-0.609-0.861c-0.076-0.66-0.076-1.898-0.076-3.405V46.253z"/>
<path fill="#FFFFFF" d="M122.905,49.013c0,1.503,0,2.747-0.078,3.405c-0.065,0.451-0.139,0.797-0.454,0.859
	c-0.142,0.028-0.331,0.062-0.47,0.062c-0.096,0-0.127,0.048-0.127,0.099c0,0.093,0.08,0.124,0.25,0.124
	c0.468,0,1.458-0.045,1.538-0.045c0.156,0,2.133,0.186,3.479,0.186c2.667,0,4.079-1.099,4.755-1.804
	c0.878-0.926,1.693-2.446,1.693-4.423c0-1.863-0.742-3.168-1.52-3.98c-1.868-1.929-4.737-1.789-6.294-1.789
	c-0.936,0-1.926,0.048-2.113,0.048c-0.08,0-1.07-0.048-1.772-0.048c-0.172,0-0.25,0.033-0.25,0.126c0,0.062,0.063,0.095,0.125,0.095
	c0.14,0,0.408,0.015,0.534,0.045c0.517,0.109,0.641,0.363,0.674,0.896c0.03,0.501,0.03,0.94,0.03,3.385V49.013z M124.221,46.004
	c0-1.206,0-2.81,0.017-3.342c0-0.173,0.044-0.251,0.187-0.311c0.127-0.064,0.711-0.113,1.021-0.113c1.869,0,3.651,0.22,5.127,1.776
	c0.648,0.67,1.509,1.956,1.509,3.945c0,1.444-0.442,2.949-1.257,3.751c-0.925,0.925-2.273,1.459-3.731,1.459
	c-1.851,0-2.459-0.332-2.667-0.627c-0.123-0.171-0.153-0.804-0.172-1.19c-0.015-0.304-0.032-1.742-0.032-3.401V46.004z"/>
<path fill="#FFFFFF" d="M136.479,51.839c-0.283,0.778-0.598,1.376-1.318,1.469c-0.126,0.019-0.344,0.031-0.453,0.031
	c-0.079,0-0.141,0.037-0.141,0.097c0,0.095,0.089,0.126,0.295,0.126c0.738,0,1.6-0.043,1.771-0.043s0.846,0.043,1.225,0.043
	c0.139,0,0.232-0.031,0.232-0.126c0-0.06-0.045-0.097-0.154-0.097h-0.16c-0.268,0-0.592-0.14-0.592-0.453
	c0-0.282,0.076-0.658,0.219-1.047l0.939-2.778c0.033-0.079,0.078-0.126,0.154-0.126h3.377c0.076,0,0.105,0.033,0.139,0.097
	l1.457,3.854c0.1,0.251,0,0.392-0.092,0.422c-0.064,0.019-0.107,0.05-0.107,0.111c0,0.1,0.166,0.1,0.469,0.111
	c1.082,0.031,2.227,0.031,2.459,0.031c0.176,0,0.314-0.031,0.314-0.126c0-0.078-0.063-0.097-0.154-0.097
	c-0.16,0-0.393-0.013-0.631-0.093c-0.326-0.091-0.781-0.342-1.344-1.741c-0.959-2.381-3.422-8.856-3.654-9.454
	c-0.189-0.484-0.254-0.563-0.348-0.563c-0.092,0-0.156,0.095-0.344,0.61L136.479,51.839z M138.672,48.37
	c-0.047,0-0.074-0.027-0.047-0.107l1.381-4.238c0.076-0.232,0.154-0.232,0.234,0l1.49,4.238c0.016,0.062,0.016,0.107-0.064,0.107
	H138.672z"/>
<path fill="#FFFFFF" d="M149.405,49.013c0,1.503,0,2.747-0.078,3.405c-0.064,0.451-0.141,0.797-0.457,0.859
	c-0.139,0.028-0.326,0.062-0.469,0.062c-0.094,0-0.125,0.048-0.125,0.099c0,0.093,0.08,0.124,0.25,0.124
	c0.471,0,1.461-0.045,1.539-0.045c0.154,0,2.133,0.186,3.479,0.186c2.668,0,4.08-1.099,4.754-1.804
	c0.875-0.926,1.693-2.446,1.693-4.423c0-1.863-0.74-3.168-1.52-3.98c-1.869-1.929-4.736-1.789-6.293-1.789
	c-0.938,0-1.928,0.048-2.113,0.048c-0.078,0-1.068-0.048-1.773-0.048c-0.174,0-0.252,0.033-0.252,0.126
	c0,0.062,0.063,0.095,0.129,0.095c0.139,0,0.406,0.015,0.531,0.045c0.52,0.109,0.645,0.363,0.676,0.896
	c0.029,0.501,0.029,0.94,0.029,3.385V49.013z M150.721,46.004c0-1.206,0-2.81,0.016-3.342c0-0.173,0.047-0.251,0.189-0.311
	c0.125-0.064,0.707-0.113,1.02-0.113c1.863,0,3.652,0.22,5.127,1.776c0.643,0.67,1.504,1.956,1.504,3.945
	c0,1.444-0.438,2.949-1.252,3.751c-0.926,0.925-2.275,1.459-3.732,1.459c-1.85,0-2.461-0.332-2.666-0.627
	c-0.125-0.171-0.154-0.804-0.174-1.19c-0.016-0.304-0.031-1.742-0.031-3.401V46.004z"/>
<path fill="#FFFFFF" d="M170.282,49.013c0,1.503,0,2.747-0.078,3.405c-0.063,0.451-0.145,0.797-0.461,0.859
	c-0.137,0.028-0.33,0.062-0.465,0.062c-0.098,0-0.127,0.048-0.127,0.099c0,0.093,0.076,0.124,0.25,0.124
	c0.469,0,1.459-0.045,1.533-0.045c0.16,0,2.135,0.186,3.482,0.186c2.67,0,4.076-1.099,4.754-1.804
	c0.875-0.926,1.695-2.446,1.695-4.423c0-1.863-0.74-3.168-1.525-3.98c-1.865-1.929-4.736-1.789-6.287-1.789
	c-0.938,0-1.928,0.048-2.119,0.048c-0.074,0-1.064-0.048-1.77-0.048c-0.17,0-0.25,0.033-0.25,0.126c0,0.062,0.061,0.095,0.123,0.095
	c0.143,0,0.412,0.015,0.533,0.045c0.52,0.109,0.643,0.363,0.678,0.896c0.033,0.501,0.033,0.94,0.033,3.385V49.013z M171.594,46.004
	c0-1.206,0-2.81,0.02-3.342c0-0.173,0.043-0.251,0.182-0.311c0.129-0.064,0.711-0.113,1.023-0.113c1.867,0,3.654,0.22,5.125,1.776
	c0.645,0.67,1.508,1.956,1.508,3.945c0,1.444-0.439,2.949-1.256,3.751c-0.924,0.925-2.27,1.459-3.73,1.459
	c-1.848,0-2.463-0.332-2.67-0.627c-0.119-0.171-0.154-0.804-0.168-1.19c-0.014-0.304-0.033-1.742-0.033-3.401V46.004z"/>
<path fill="#FFFFFF" d="M185.153,49.013c0,1.507,0,2.745-0.08,3.405c-0.063,0.451-0.139,0.795-0.453,0.861
	c-0.146,0.028-0.332,0.06-0.475,0.06c-0.092,0-0.121,0.048-0.121,0.099c0,0.091,0.076,0.124,0.246,0.124
	c0.473,0,1.461-0.045,1.539-0.045c0.457,0,1.506,0.093,3.877,0.093c0.611,0,0.732,0,0.846-0.408c0.074-0.332,0.203-1.397,0.203-1.52
	c0-0.111,0-0.237-0.096-0.237c-0.08,0-0.107,0.064-0.141,0.237c-0.111,0.639-0.299,0.954-0.707,1.126
	c-0.404,0.171-1.1,0.171-1.504,0.171c-1.539,0-1.77-0.2-1.822-1.284c-0.014-0.328,0-2.149,0-2.682v-1.381
	c0-0.06,0.033-0.109,0.113-0.109c0.268,0,1.82,0.035,2.246,0.078c0.607,0.063,0.75,0.33,0.813,0.551
	c0.063,0.204,0.063,0.358,0.063,0.52c0,0.074,0.029,0.138,0.107,0.138c0.109,0,0.109-0.173,0.109-0.299
	c0-0.109,0.031-0.688,0.064-1.002c0.045-0.517,0.125-0.785,0.125-0.876c0-0.099-0.031-0.125-0.08-0.125
	c-0.057,0-0.119,0.08-0.234,0.199c-0.137,0.161-0.359,0.189-0.738,0.223c-0.361,0.031-2.287,0.031-2.492,0.031
	c-0.076,0-0.096-0.048-0.096-0.159v-4.324c0-0.108,0.033-0.158,0.096-0.158c0.176,0,1.881,0.015,2.152,0.05
	c0.842,0.093,0.998,0.278,1.111,0.529c0.082,0.189,0.092,0.453,0.092,0.563c0,0.126,0.031,0.202,0.129,0.202
	c0.061,0,0.092-0.089,0.107-0.167c0.035-0.189,0.064-0.88,0.076-1.034c0.051-0.441,0.127-0.629,0.127-0.74
	c0-0.076-0.012-0.139-0.059-0.139c-0.08,0-0.145,0.063-0.223,0.079c-0.127,0.028-0.375,0.06-0.674,0.078
	c-0.361,0.01-3.482,0.01-3.592,0.01c-0.078,0-1.066-0.041-1.771-0.041c-0.176,0-0.252,0.031-0.252,0.124
	c0,0.062,0.063,0.095,0.129,0.095c0.139,0,0.408,0.015,0.531,0.045c0.518,0.109,0.643,0.361,0.676,0.896
	c0.031,0.501,0.031,0.938,0.031,3.385V49.013z"/>
<path fill="#FFFFFF" d="M206.493,53.78c1.004,0,2.195-0.109,2.822-0.361c0.281-0.121,0.311-0.156,0.408-0.455
	c0.158-0.529,0.344-1.895,0.344-2.004c0-0.127-0.031-0.236-0.107-0.236c-0.096,0-0.129,0.063-0.16,0.236
	c-0.043,0.281-0.25,0.972-0.582,1.315c-0.627,0.644-1.551,0.781-2.725,0.781c-3.355,0-5.66-2.743-5.66-5.738
	c0-1.598,0.27-2.992,1.412-4.093c0.549-0.532,1.521-1.145,3.607-1.145c1.375,0,2.586,0.425,3.135,0.895
	c0.406,0.349,0.656,0.987,0.656,1.602c0,0.221,0.02,0.332,0.127,0.332c0.094,0,0.125-0.102,0.143-0.332
	c0.012-0.234,0.012-1.101,0.047-1.616c0.029-0.566,0.076-0.752,0.076-0.88c0-0.093-0.029-0.154-0.205-0.171
	c-0.5-0.033-1-0.126-1.596-0.235c-0.768-0.14-1.65-0.188-2.273-0.188c-2.414,0-3.842,0.738-4.787,1.678
	c-1.393,1.394-1.756,3.23-1.756,4.283c0,1.486,0.381,3.275,1.9,4.636C202.557,53.196,204.139,53.78,206.493,53.78"/>
<path fill="#FFFFFF" d="M223.952,46.253c0-2.446,0-2.884,0.029-3.385c0.033-0.55,0.164-0.817,0.582-0.896
	c0.189-0.03,0.281-0.045,0.396-0.045c0.061,0,0.123-0.033,0.123-0.095c0-0.093-0.08-0.126-0.25-0.126
	c-0.473,0-1.457,0.043-1.537,0.043s-1.066-0.043-1.771-0.043c-0.176,0-0.252,0.033-0.252,0.126c0,0.062,0.061,0.095,0.127,0.095
	c0.137,0,0.406,0.015,0.529,0.045c0.521,0.109,0.641,0.361,0.678,0.896c0.029,0.501,0.029,0.938,0.029,3.385v0.332
	c0,0.076-0.047,0.095-0.092,0.095h-6.648c-0.051,0-0.094-0.019-0.094-0.095v-0.332c0-2.446,0-2.884,0.029-3.385
	c0.031-0.55,0.158-0.817,0.576-0.896c0.189-0.03,0.283-0.045,0.395-0.045c0.063,0,0.125-0.033,0.125-0.095
	c0-0.093-0.08-0.126-0.248-0.126c-0.473,0-1.459,0.043-1.539,0.043c-0.076,0-1.066-0.043-1.771-0.043
	c-0.172,0-0.248,0.033-0.248,0.126c0,0.062,0.063,0.095,0.125,0.095c0.141,0,0.406,0.015,0.529,0.045
	c0.52,0.109,0.646,0.361,0.676,0.896c0.033,0.501,0.033,0.938,0.033,3.385v2.76c0,1.507,0,2.745-0.082,3.405
	c-0.061,0.451-0.139,0.795-0.449,0.861c-0.145,0.026-0.332,0.06-0.477,0.06c-0.09,0-0.127,0.048-0.127,0.099
	c0,0.093,0.082,0.124,0.256,0.124c0.469,0,1.459-0.045,1.535-0.045c0.08,0,1.066,0.045,1.93,0.045c0.172,0,0.252-0.045,0.252-0.124
	c0-0.051-0.031-0.099-0.129-0.099c-0.141,0-0.484-0.033-0.701-0.06c-0.475-0.066-0.564-0.41-0.613-0.861
	c-0.076-0.66-0.076-1.898-0.076-3.405v-1.646c0-0.076,0.043-0.091,0.094-0.091h6.648c0.045,0,0.092,0.028,0.092,0.091v1.646
	c0,1.507,0,2.745-0.078,3.405c-0.063,0.451-0.141,0.795-0.453,0.861c-0.143,0.026-0.33,0.06-0.475,0.06
	c-0.094,0-0.123,0.048-0.123,0.099c0,0.093,0.082,0.124,0.25,0.124c0.473,0,1.459-0.045,1.539-0.045s1.064,0.045,1.93,0.045
	c0.17,0,0.246-0.045,0.246-0.124c0-0.051-0.031-0.099-0.119-0.099c-0.145,0-0.486-0.033-0.707-0.06
	c-0.475-0.066-0.568-0.41-0.613-0.861c-0.08-0.66-0.08-1.898-0.08-3.405V46.253z"/>
<path fill="#FFFFFF" d="M231.502,46.253c0-2.446,0-2.884,0.031-3.385c0.031-0.55,0.158-0.817,0.582-0.896
	c0.188-0.03,0.281-0.045,0.387-0.045c0.064,0,0.127-0.033,0.127-0.095c0-0.093-0.076-0.126-0.248-0.126
	c-0.471,0-1.461,0.043-1.541,0.043c-0.074,0-1.064-0.043-1.584-0.043c-0.168,0-0.248,0.033-0.248,0.126
	c0,0.062,0.063,0.095,0.125,0.095c0.113,0,0.311,0.015,0.486,0.062c0.346,0.076,0.5,0.345,0.535,0.88
	c0.029,0.501,0.029,0.938,0.029,3.385v2.76c0,1.507,0,2.745-0.074,3.405c-0.063,0.451-0.145,0.795-0.457,0.861
	c-0.145,0.026-0.332,0.06-0.469,0.06c-0.096,0-0.127,0.048-0.127,0.099c0,0.093,0.076,0.124,0.252,0.124
	c0.467,0,1.457-0.045,1.531-0.045c0.08,0,1.07,0.045,1.932,0.045c0.176,0,0.25-0.045,0.25-0.124c0-0.051-0.031-0.099-0.123-0.099
	c-0.146,0-0.484-0.033-0.707-0.06c-0.469-0.066-0.563-0.41-0.609-0.861c-0.08-0.66-0.08-1.898-0.08-3.405V46.253z"/>
<path fill="#FFFFFF" d="M239.049,46.253c0-2.446,0-2.884,0.035-3.385c0.031-0.55,0.158-0.817,0.611-0.896
	c0.186-0.03,0.41-0.045,0.518-0.045c0.063,0,0.127-0.033,0.127-0.095c0-0.093-0.08-0.126-0.252-0.126
	c-0.473,0-1.617,0.043-1.691,0.043c-0.082,0-1.074-0.043-1.771-0.043c-0.176,0-0.252,0.033-0.252,0.126
	c0,0.062,0.061,0.095,0.123,0.095c0.141,0,0.408,0.015,0.535,0.045c0.518,0.109,0.643,0.361,0.674,0.896
	c0.033,0.501,0.033,0.938,0.033,3.385v2.76c0,1.507,0,2.745-0.082,3.405c-0.061,0.451-0.141,0.795-0.451,0.861
	c-0.143,0.026-0.332,0.06-0.467,0.06c-0.102,0-0.135,0.048-0.135,0.099c0,0.093,0.082,0.124,0.252,0.124
	c0.467,0,1.402-0.045,1.541-0.045c0.906,0,1.943,0.09,4.201,0.09c0.832,0,0.881-0.06,0.988-0.42
	c0.125-0.458,0.238-1.397,0.238-1.572c0-0.17-0.021-0.231-0.096-0.231c-0.098,0-0.127,0.078-0.143,0.202
	c-0.045,0.295-0.207,0.69-0.406,0.942c-0.377,0.451-1.068,0.47-1.898,0.47c-1.223,0-1.629-0.107-1.881-0.363
	c-0.285-0.28-0.352-1.281-0.352-3.588V46.253z"/>
<path fill="#FFFFFF" d="M247.667,49.013c0,1.507,0,2.745-0.074,3.405c-0.064,0.451-0.146,0.795-0.455,0.861
	c-0.145,0.028-0.332,0.06-0.471,0.06c-0.092,0-0.127,0.048-0.127,0.099c0,0.091,0.074,0.124,0.252,0.124
	c0.469,0,1.457-0.045,1.533-0.045c0.453,0,1.506,0.093,3.877,0.093c0.611,0,0.738,0,0.844-0.408c0.084-0.332,0.205-1.397,0.205-1.52
	c0-0.111,0-0.237-0.092-0.237c-0.08,0-0.113,0.064-0.145,0.237c-0.109,0.639-0.299,0.954-0.701,1.126
	c-0.41,0.171-1.1,0.171-1.506,0.171c-1.537,0-1.775-0.2-1.82-1.284c-0.02-0.328,0-2.149,0-2.682v-1.381
	c0-0.06,0.029-0.109,0.107-0.109c0.268,0,1.82,0.035,2.244,0.078c0.611,0.063,0.75,0.33,0.816,0.551
	c0.063,0.204,0.063,0.358,0.063,0.52c0,0.074,0.027,0.138,0.109,0.138c0.107,0,0.107-0.173,0.107-0.299
	c0-0.109,0.031-0.688,0.061-1.002c0.053-0.517,0.129-0.785,0.129-0.876c0-0.099-0.033-0.125-0.076-0.125
	c-0.064,0-0.127,0.08-0.234,0.199c-0.145,0.161-0.363,0.189-0.742,0.223c-0.357,0.031-2.291,0.031-2.49,0.031
	c-0.08,0-0.094-0.048-0.094-0.159v-4.324c0-0.108,0.029-0.158,0.094-0.158c0.172,0,1.883,0.015,2.145,0.05
	c0.848,0.093,1.006,0.278,1.113,0.529c0.082,0.189,0.096,0.453,0.096,0.563c0,0.126,0.031,0.202,0.129,0.202
	c0.061,0,0.09-0.089,0.107-0.167c0.031-0.189,0.063-0.88,0.08-1.034c0.047-0.441,0.123-0.629,0.123-0.74
	c0-0.076-0.014-0.139-0.061-0.139c-0.08,0-0.143,0.063-0.223,0.079c-0.125,0.028-0.373,0.06-0.672,0.078
	c-0.359,0.01-3.48,0.01-3.594,0.01c-0.076,0-1.064-0.041-1.771-0.041c-0.168,0-0.248,0.031-0.248,0.124
	c0,0.062,0.063,0.095,0.127,0.095c0.143,0,0.402,0.015,0.529,0.045c0.518,0.109,0.643,0.361,0.674,0.896
	c0.031,0.501,0.031,0.938,0.031,3.385V49.013z"/>
<path fill="#FFFFFF" d="M127.759,19c-0.082-0.148-0.113-0.197-0.229-0.197c-0.049,0-0.163,0.034-0.327,0.146
	c-0.261,0.167-1.972,1.438-2.625,2.058c-0.082,0.081-0.146,0.146-0.146,0.21c0,0.066,0.064,0.097,0.096,0.097
	c0.03,0,0.146-0.065,0.28-0.129c0.602-0.325,1.887-0.847,2.786-0.963c0.326-0.03,0.469,0,0.556,0c0.082,0,0.177-0.047,0.082-0.244
	C128.036,19.539,127.887,19.228,127.759,19"/>
<path fill="#FFFFFF" d="M34.033,30.195c0,1.523,0,2.764-0.08,3.417c-0.047,0.457-0.138,0.726-0.455,0.787
	c-0.138,0.031-0.327,0.064-0.564,0.064c-0.188,0-0.251,0.043-0.251,0.125c0,0.109,0.112,0.153,0.314,0.153
	c0.625,0,1.619-0.044,1.976-0.044c0.425,0,1.413,0.044,2.448,0.044c0.172,0,0.298-0.044,0.298-0.153c0-0.082-0.08-0.125-0.252-0.125
	c-0.236,0-0.578-0.033-0.798-0.064c-0.471-0.062-0.581-0.346-0.626-0.771c-0.062-0.67-0.062-1.911-0.062-3.434v-2.759
	c0-2.382,0-2.82,0.027-3.323c0.035-0.55,0.161-0.817,0.583-0.895c0.186-0.03,0.312-0.048,0.471-0.048
	c0.154,0,0.252-0.028,0.252-0.157c0-0.094-0.128-0.122-0.332-0.122c-0.595,0-1.521,0.047-1.914,0.047
	c-0.451,0-1.445-0.047-2.038-0.047c-0.25,0-0.377,0.028-0.377,0.122c0,0.129,0.094,0.157,0.251,0.157
	c0.188,0,0.393,0.018,0.567,0.066c0.345,0.076,0.503,0.344,0.534,0.877c0.029,0.502,0.029,0.941,0.029,3.323V30.195z"/>
<path fill="#FFFFFF" d="M41.886,26.024h0.047c0.281,0.302,2.021,2.26,3.725,3.952c1.634,1.616,3.637,3.671,4.625,4.612
	c0.172,0.172,0.36,0.343,0.534,0.343c0.141,0,0.202-0.139,0.202-0.486l0.174-9.894c0.015-0.881,0.141-1.205,0.576-1.335
	c0.191-0.048,0.317-0.048,0.475-0.048c0.189,0,0.279-0.043,0.279-0.14c0-0.123-0.152-0.141-0.359-0.141
	c-0.765,0-1.364,0.05-1.537,0.05c-0.33,0-1.081-0.05-1.894-0.05c-0.236,0-0.409,0.018-0.409,0.141c0,0.096,0.062,0.14,0.249,0.14
	c0.219,0,0.594,0,0.833,0.096c0.374,0.159,0.517,0.454,0.532,1.413l0.155,7.038h-0.081c-0.265-0.251-2.377-2.51-3.443-3.574
	c-2.288-2.274-4.669-4.83-4.859-5.036c-0.268-0.278-0.411-0.482-0.586-0.482c-0.156,0-0.204,0.219-0.204,0.532l-0.14,9.281
	c-0.015,1.366-0.076,1.82-0.488,1.943c-0.217,0.064-0.501,0.083-0.702,0.083c-0.158,0-0.251,0.03-0.251,0.125
	c0,0.139,0.141,0.157,0.344,0.157c0.813,0,1.553-0.05,1.697-0.05c0.298,0,0.926,0.05,1.946,0.05c0.219,0,0.362-0.035,0.362-0.157
	c-0.008-0.095-0.102-0.125-0.275-0.125c-0.25,0-0.546-0.019-0.815-0.111c-0.313-0.111-0.518-0.52-0.547-1.742L41.886,26.024z"/>
<path fill="#FFFFFF" d="M65.512,31.968c0-0.783,0-1.41,0.016-1.882c0.014-0.549,0.17-0.816,0.596-0.892
	c0.185-0.032,0.297-0.047,0.422-0.047c0.11,0,0.206-0.029,0.206-0.128c0-0.122-0.109-0.153-0.315-0.153
	c-0.518,0-1.349,0.046-1.833,0.046c-0.471,0-1.458-0.046-2.276-0.046c-0.219,0-0.327,0.032-0.327,0.153
	c0,0.099,0.092,0.128,0.233,0.128c0.219,0,0.485,0.015,0.61,0.047c0.518,0.108,0.658,0.36,0.677,0.892
	c0.014,0.472,0.014,1.069,0.014,1.851v1.474c0,0.266-0.065,0.472-0.295,0.577c-0.378,0.178-0.928,0.178-1.335,0.178
	c-3.311,0-5.459-2.527-5.459-5.898c0-1.927,0.563-3.102,1.446-3.839c1.092-0.91,2.241-0.974,3.103-0.974
	c1.775,0,3.027,0.723,3.497,1.224c0.409,0.44,0.487,0.94,0.534,1.301c0.017,0.124,0.048,0.205,0.156,0.205
	c0.128,0,0.173-0.081,0.173-0.332c0-1.941,0.109-2.38,0.109-2.554c0-0.11-0.026-0.171-0.22-0.188
	c-0.359-0.013-0.91-0.109-1.238-0.17c-0.312-0.082-1.692-0.269-2.772-0.269c-1.32,0-2.715,0.108-4.224,1.021
	c-1.425,0.863-2.725,2.618-2.725,5.126c0,4.328,3.404,6.147,7.245,6.147c1.222,0,2.762-0.175,3.78-0.706
	c0.187-0.109,0.203-0.143,0.203-0.563V31.968z"/>
<path fill="#FFFFFF" d="M69.936,30.195c0,1.447,0,2.684-0.075,3.341c-0.063,0.451-0.142,0.802-0.458,0.863
	c-0.139,0.031-0.329,0.064-0.563,0.064c-0.189,0-0.251,0.043-0.251,0.125c0,0.109,0.108,0.153,0.313,0.153
	c0.625,0,1.616-0.044,1.976-0.044c0.925,0,1.978,0.095,4.346,0.095c0.593,0,0.733,0,0.843-0.412
	c0.081-0.312,0.204-1.377,0.204-1.739c0-0.157,0-0.278-0.123-0.278c-0.112,0-0.141,0.062-0.173,0.232
	c-0.112,0.642-0.3,0.974-0.706,1.161c-0.407,0.188-1.07,0.188-1.476,0.188c-1.598,0-1.85-0.235-1.882-1.317
	c-0.015-0.453,0-1.898,0-2.432v-1.237c0-0.095,0.017-0.158,0.095-0.158c0.379,0,1.93,0.018,2.226,0.048
	c0.58,0.061,0.799,0.297,0.881,0.611c0.044,0.204,0.044,0.406,0.062,0.564c0,0.076,0.03,0.14,0.14,0.14
	c0.141,0,0.141-0.173,0.141-0.299c0-0.107,0.033-0.736,0.064-1.047c0.045-0.802,0.125-1.053,0.125-1.143
	c0-0.1-0.047-0.13-0.107-0.13c-0.082,0-0.143,0.081-0.251,0.203c-0.143,0.159-0.38,0.207-0.754,0.237
	c-0.359,0.031-2.166,0.031-2.51,0.031c-0.094,0-0.111-0.062-0.111-0.169v-3.971c0-0.107,0.032-0.154,0.111-0.154
	c0.314,0,1.958,0.029,2.227,0.059c0.783,0.095,0.94,0.285,1.052,0.568c0.079,0.188,0.093,0.456,0.093,0.563
	c0,0.142,0.03,0.218,0.143,0.218c0.107,0,0.138-0.093,0.157-0.172c0.03-0.188,0.063-0.875,0.076-1.034
	c0.048-0.72,0.127-0.911,0.127-1.019c0-0.077-0.016-0.142-0.095-0.142c-0.077,0-0.172,0.047-0.251,0.065
	c-0.126,0.03-0.375,0.063-0.674,0.09c-0.296,0.02-3.419,0.02-3.918,0.02c-0.44,0-1.431-0.047-2.261-0.047
	c-0.23,0-0.342,0.028-0.342,0.141c0,0.11,0.092,0.139,0.265,0.139c0.22,0,0.489,0.018,0.613,0.048
	c0.516,0.108,0.642,0.362,0.674,0.895c0.029,0.502,0.029,0.941,0.029,3.323V30.195z"/>
<path fill="#FFFFFF" d="M80.609,26.024h0.046c0.283,0.302,2.022,2.26,3.729,3.952c1.632,1.616,3.635,3.671,4.624,4.612
	c0.172,0.172,0.362,0.343,0.531,0.343c0.143,0,0.204-0.139,0.204-0.486l0.172-9.894c0.017-0.881,0.143-1.205,0.583-1.335
	c0.185-0.048,0.314-0.048,0.467-0.048c0.191,0,0.286-0.043,0.286-0.14c0-0.123-0.155-0.141-0.36-0.141
	c-0.771,0-1.365,0.05-1.541,0.05c-0.326,0-1.079-0.05-1.895-0.05c-0.23,0-0.408,0.018-0.408,0.141c0,0.096,0.064,0.14,0.251,0.14
	c0.221,0,0.595,0,0.831,0.096c0.378,0.159,0.518,0.454,0.535,1.413l0.156,7.038h-0.081c-0.265-0.251-2.378-2.51-3.446-3.574
	c-2.285-2.274-4.666-4.83-4.857-5.036c-0.27-0.278-0.411-0.482-0.585-0.482c-0.157,0-0.205,0.219-0.205,0.532l-0.14,9.281
	c-0.016,1.366-0.08,1.82-0.488,1.943c-0.221,0.064-0.501,0.083-0.706,0.083c-0.159,0-0.251,0.03-0.251,0.125
	c0,0.139,0.143,0.157,0.346,0.157c0.815,0,1.555-0.05,1.697-0.05c0.299,0,0.926,0.05,1.944,0.05c0.219,0,0.365-0.035,0.365-0.157
	c-0.009-0.095-0.1-0.125-0.272-0.125c-0.253,0-0.551-0.019-0.819-0.111c-0.312-0.111-0.514-0.52-0.545-1.742L80.609,26.024z"/>
<path fill="#FFFFFF" d="M94.798,30.195c0,1.523,0,2.764-0.082,3.417c-0.047,0.457-0.141,0.726-0.453,0.787
	c-0.141,0.031-0.328,0.064-0.565,0.064c-0.19,0-0.248,0.043-0.248,0.125c0,0.109,0.109,0.153,0.309,0.153
	c0.627,0,1.615-0.044,1.977-0.044c0.425,0,1.414,0.044,2.444,0.044c0.176,0,0.303-0.044,0.303-0.153
	c0-0.082-0.082-0.125-0.252-0.125c-0.238,0-0.581-0.033-0.802-0.064c-0.468-0.062-0.58-0.346-0.627-0.771
	c-0.062-0.67-0.062-1.911-0.062-3.434v-2.759c0-2.382,0-2.82,0.032-3.323c0.03-0.55,0.157-0.817,0.578-0.895
	c0.187-0.03,0.315-0.048,0.469-0.048c0.161,0,0.256-0.028,0.256-0.157c0-0.094-0.126-0.122-0.333-0.122
	c-0.593,0-1.518,0.047-1.912,0.047c-0.457,0-1.444-0.047-2.039-0.047c-0.251,0-0.375,0.028-0.375,0.122
	c0,0.129,0.091,0.157,0.25,0.157c0.187,0,0.394,0.018,0.563,0.066c0.345,0.076,0.505,0.344,0.535,0.877
	c0.032,0.502,0.032,0.941,0.032,3.323V30.195z"/>
<path fill="#FFFFFF" d="M101.936,30.195c0,1.447,0,2.684-0.079,3.341c-0.062,0.451-0.146,0.802-0.454,0.863
	c-0.14,0.031-0.33,0.064-0.565,0.064c-0.187,0-0.251,0.043-0.251,0.125c0,0.109,0.11,0.153,0.314,0.153
	c0.623,0,1.614-0.044,1.976-0.044c0.924,0,1.976,0.095,4.342,0.095c0.599,0,0.739,0,0.849-0.412c0.075-0.312,0.2-1.377,0.2-1.739
	c0-0.157,0-0.278-0.125-0.278c-0.108,0-0.138,0.062-0.171,0.232c-0.109,0.642-0.296,0.974-0.706,1.161
	c-0.407,0.188-1.067,0.188-1.475,0.188c-1.601,0-1.852-0.235-1.88-1.317c-0.018-0.453,0-1.898,0-2.432v-1.237
	c0-0.095,0.016-0.158,0.09-0.158c0.382,0,1.933,0.018,2.229,0.048c0.58,0.061,0.8,0.297,0.879,0.611
	c0.044,0.204,0.044,0.406,0.062,0.564c0,0.076,0.033,0.14,0.141,0.14c0.143,0,0.143-0.173,0.143-0.299
	c0-0.107,0.03-0.736,0.062-1.047c0.048-0.802,0.125-1.053,0.125-1.143c0-0.1-0.045-0.13-0.109-0.13
	c-0.077,0-0.141,0.081-0.251,0.203c-0.14,0.159-0.376,0.207-0.752,0.237c-0.363,0.031-2.165,0.031-2.508,0.031
	c-0.094,0-0.109-0.062-0.109-0.169v-3.971c0-0.107,0.028-0.154,0.109-0.154c0.313,0,1.959,0.029,2.226,0.059
	c0.784,0.095,0.94,0.285,1.052,0.568c0.075,0.188,0.092,0.456,0.092,0.563c0,0.142,0.031,0.218,0.141,0.218
	c0.109,0,0.143-0.093,0.16-0.172c0.031-0.188,0.062-0.875,0.075-1.034c0.05-0.72,0.125-0.911,0.125-1.019
	c0-0.077-0.012-0.142-0.093-0.142c-0.077,0-0.175,0.047-0.251,0.065c-0.127,0.03-0.377,0.063-0.674,0.09
	c-0.296,0.02-3.416,0.02-3.918,0.02c-0.441,0-1.432-0.047-2.259-0.047c-0.234,0-0.346,0.028-0.346,0.141
	c0,0.11,0.093,0.139,0.267,0.139c0.221,0,0.487,0.018,0.612,0.048c0.515,0.108,0.643,0.362,0.673,0.895
	c0.033,0.502,0.033,0.941,0.033,3.323V30.195z"/>
<path fill="#FFFFFF" d="M111.896,30.197c0,1.44,0,2.682-0.078,3.339c-0.063,0.451-0.142,0.8-0.454,0.865
	c-0.143,0.029-0.328,0.063-0.563,0.063c-0.191,0-0.254,0.043-0.254,0.125c0,0.109,0.111,0.155,0.315,0.155
	c0.626,0,1.614-0.046,1.915-0.046c0.235,0,1.394,0.046,2.305,0.046c0.202,0,0.313-0.046,0.313-0.155
	c0-0.082-0.064-0.125-0.192-0.125c-0.184,0-0.529-0.033-0.766-0.063c-0.47-0.065-0.566-0.414-0.611-0.865
	c-0.079-0.657-0.079-1.898-0.079-3.355V29.96c0-0.095,0.05-0.122,0.124-0.122l1.365,0.027c0.111,0,0.207,0.019,0.287,0.111
	c0.2,0.237,0.924,1.301,1.549,2.162c0.876,1.21,1.475,1.947,2.149,2.307c0.407,0.223,0.8,0.299,1.679,0.299h1.491
	c0.187,0,0.295-0.033,0.295-0.155c0-0.082-0.065-0.125-0.188-0.125c-0.128,0-0.268-0.019-0.438-0.048
	c-0.235-0.052-0.879-0.158-1.758-1.067c-0.925-0.971-2.006-2.364-3.404-4.124c1.583-1.287,2.072-2.353,2.072-3.513
	c0-1.049-0.626-1.851-1.066-2.147c-0.846-0.58-1.899-0.677-2.885-0.677c-0.485,0-1.679,0.051-2.212,0.051
	c-0.33,0-1.318-0.051-2.149-0.051c-0.235,0-0.344,0.031-0.344,0.14c0,0.116,0.094,0.144,0.268,0.144c0.22,0,0.483,0.015,0.61,0.047
	c0.517,0.108,0.641,0.36,0.672,0.893c0.032,0.503,0.032,0.941,0.032,3.326V30.197z M113.746,23.908c0-0.127,0.031-0.187,0.142-0.219
	c0.158-0.048,0.44-0.063,0.832-0.063c0.923,0,2.398,0.645,2.398,2.873c0,1.285-0.451,2.005-0.926,2.351
	c-0.279,0.205-0.486,0.269-1.11,0.269c-0.392,0-0.865-0.051-1.193-0.16c-0.111-0.046-0.142-0.109-0.142-0.283V23.908z"/>
<path fill="#FFFFFF" d="M123.786,30.195c0,1.523,0,2.764-0.079,3.417c-0.048,0.457-0.141,0.726-0.453,0.787
	c-0.14,0.031-0.328,0.064-0.565,0.064c-0.189,0-0.25,0.043-0.25,0.125c0,0.109,0.107,0.153,0.313,0.153
	c0.625,0,1.618-0.044,1.977-0.044c0.423,0,1.412,0.044,2.448,0.044c0.17,0,0.296-0.044,0.296-0.153c0-0.082-0.08-0.125-0.251-0.125
	c-0.237,0-0.581-0.033-0.802-0.064c-0.468-0.062-0.58-0.346-0.625-0.771c-0.063-0.67-0.063-1.911-0.063-3.434v-2.759
	c0-2.382,0-2.82,0.031-3.323c0.033-0.55,0.159-0.817,0.583-0.895c0.183-0.03,0.313-0.048,0.47-0.048
	c0.154,0,0.249-0.028,0.249-0.157c0-0.094-0.125-0.122-0.331-0.122c-0.593,0-1.519,0.047-1.912,0.047
	c-0.451,0-1.444-0.047-2.04-0.047c-0.25,0-0.375,0.028-0.375,0.122c0,0.129,0.092,0.157,0.249,0.157
	c0.188,0,0.395,0.018,0.571,0.066c0.34,0.076,0.498,0.344,0.532,0.877c0.028,0.502,0.028,0.941,0.028,3.323V30.195z"/>
<path fill="#FFFFFF" d="M135.05,30.654c0.078,0,0.126,0.029,0.156,0.107l1.26,3.324c0.076,0.186-0.033,0.33-0.146,0.359
	c-0.156,0.019-0.217,0.047-0.217,0.144c0,0.105,0.188,0.105,0.471,0.122c1.254,0.033,2.398,0.033,2.963,0.033
	c0.58,0,0.723-0.033,0.723-0.155c0-0.111-0.078-0.125-0.207-0.125c-0.188,0-0.424-0.019-0.658-0.063
	c-0.328-0.082-0.785-0.301-1.377-1.713c-1.006-2.384-3.515-8.781-3.89-9.644c-0.158-0.361-0.251-0.501-0.393-0.501
	c-0.159,0-0.25,0.174-0.441,0.629l-3.935,9.846c-0.313,0.785-0.614,1.317-1.332,1.41c-0.125,0.017-0.343,0.035-0.489,0.035
	c-0.125,0-0.187,0.028-0.187,0.125c0,0.122,0.092,0.155,0.299,0.155c0.815,0,1.676-0.05,1.851-0.05c0.484,0,1.158,0.05,1.659,0.05
	c0.175,0,0.269-0.033,0.269-0.155c0-0.097-0.052-0.125-0.237-0.125h-0.233c-0.49,0-0.63-0.206-0.63-0.489
	c0-0.186,0.078-0.566,0.239-0.956l0.846-2.238c0.03-0.097,0.06-0.126,0.14-0.126H135.05z M131.868,29.865
	c-0.065,0-0.075-0.045-0.065-0.107l1.445-3.859c0.013-0.066,0.044-0.138,0.095-0.138c0.048,0,0.063,0.072,0.076,0.138l1.411,3.874
	c0.017,0.047,0,0.093-0.078,0.093H131.868z"/>
<path fill="#FFFFFF" d="M146.928,30.195c0,1.523,0,2.764-0.078,3.417c-0.045,0.457-0.145,0.726-0.455,0.787
	c-0.141,0.031-0.332,0.064-0.564,0.064c-0.189,0-0.25,0.043-0.25,0.125c0,0.109,0.109,0.153,0.313,0.153
	c0.627,0,1.613-0.044,1.975-0.044c0.422,0,1.408,0.044,2.445,0.044c0.174,0,0.301-0.044,0.301-0.153
	c0-0.082-0.078-0.125-0.252-0.125c-0.236,0-0.58-0.033-0.799-0.064c-0.471-0.062-0.582-0.346-0.629-0.771
	c-0.063-0.67-0.063-1.911-0.063-3.434v-2.759c0-2.382,0-2.82,0.033-3.323c0.029-0.55,0.158-0.817,0.576-0.895
	c0.195-0.03,0.316-0.048,0.475-0.048c0.152,0,0.252-0.028,0.252-0.157c0-0.094-0.127-0.122-0.332-0.122
	c-0.6,0-1.521,0.047-1.912,0.047c-0.457,0-1.443-0.047-2.039-0.047c-0.252,0-0.375,0.028-0.375,0.122
	c0,0.129,0.092,0.157,0.25,0.157c0.186,0,0.393,0.018,0.564,0.066c0.342,0.076,0.504,0.344,0.533,0.877
	c0.031,0.502,0.031,0.941,0.031,3.323V30.195z"/>
<path fill="#FFFFFF" d="M154.78,26.024h0.049c0.281,0.302,2.018,2.26,3.729,3.952c1.629,1.616,3.631,3.671,4.623,4.612
	c0.17,0.172,0.359,0.343,0.527,0.343c0.145,0,0.205-0.139,0.205-0.486l0.172-9.894c0.018-0.881,0.143-1.205,0.582-1.335
	c0.188-0.048,0.318-0.048,0.471-0.048c0.188,0,0.285-0.043,0.285-0.14c0-0.123-0.156-0.141-0.363-0.141
	c-0.77,0-1.365,0.05-1.539,0.05c-0.328,0-1.078-0.05-1.895-0.05c-0.232,0-0.408,0.018-0.408,0.141c0,0.096,0.064,0.14,0.248,0.14
	c0.223,0,0.6,0,0.836,0.096c0.375,0.159,0.514,0.454,0.531,1.413l0.156,7.038h-0.076c-0.268-0.251-2.383-2.51-3.445-3.574
	c-2.289-2.274-4.672-4.83-4.863-5.036c-0.266-0.278-0.41-0.482-0.584-0.482c-0.152,0-0.201,0.219-0.201,0.532l-0.141,9.281
	c-0.02,1.366-0.078,1.82-0.49,1.943c-0.219,0.064-0.502,0.083-0.703,0.083c-0.16,0-0.252,0.03-0.252,0.125
	c0,0.139,0.141,0.157,0.342,0.157c0.82,0,1.557-0.05,1.699-0.05c0.303,0,0.928,0.05,1.947,0.05c0.217,0,0.361-0.035,0.361-0.157
	c-0.006-0.095-0.102-0.125-0.27-0.125c-0.252,0-0.553-0.019-0.818-0.111c-0.316-0.111-0.516-0.52-0.547-1.742L154.78,26.024z"/>
<path fill="#FFFFFF" d="M168.967,30.195c0,1.443,0,2.684-0.082,3.341c-0.061,0.451-0.137,0.802-0.455,0.863
	c-0.139,0.029-0.326,0.064-0.563,0.064c-0.189,0-0.25,0.043-0.25,0.123c0,0.107,0.109,0.155,0.313,0.155
	c0.631,0,1.615-0.048,1.975-0.048c0.787,0,2.195,0.189,3.34,0.189c2.904,0,4.533-1.113,5.252-1.849
	c0.879-0.893,1.709-2.398,1.709-4.376c0-1.866-0.732-3.167-1.52-3.982c-1.705-1.79-4.326-1.79-6.283-1.79
	c-0.943,0-1.93,0.051-2.418,0.051c-0.439,0-1.424-0.051-2.258-0.051c-0.234,0-0.344,0.031-0.344,0.144
	c0,0.111,0.09,0.139,0.266,0.139c0.219,0,0.488,0.017,0.613,0.05c0.512,0.107,0.643,0.36,0.668,0.893
	c0.037,0.504,0.037,0.939,0.037,3.323V30.195z M170.926,27.184c0-1.239,0-2.602,0.014-3.135c0-0.173,0.049-0.249,0.189-0.313
	c0.125-0.063,0.705-0.111,1.02-0.111c1.225,0,3.012,0.188,4.453,1.567c0.674,0.646,1.51,1.931,1.51,3.926
	c0,1.611-0.32,3.038-1.32,3.897c-0.943,0.818-2.008,1.136-3.607,1.136c-1.24,0-1.854-0.332-2.055-0.631
	c-0.125-0.171-0.156-0.802-0.172-1.193c-0.018-0.297-0.031-1.502-0.031-3.165V27.184z"/>
<path fill="#FFFFFF" d="M183.018,29.727c0,2.276,0.596,3.432,1.396,4.155c1.145,1.035,2.65,1.082,3.482,1.082
	c1.021,0,2.148-0.175,3.262-1.131c1.316-1.126,1.492-2.977,1.492-4.715v-1.68c0-2.386,0-2.821,0.027-3.325
	c0.035-0.549,0.16-0.819,0.58-0.892c0.189-0.034,0.285-0.052,0.457-0.052c0.188,0,0.281-0.028,0.281-0.137
	c0-0.113-0.111-0.142-0.328-0.142c-0.611,0-1.6,0.048-1.785,0.048c-0.023,0-1.008-0.048-1.809-0.048
	c-0.219,0-0.326,0.028-0.326,0.142c0,0.109,0.094,0.137,0.264,0.137c0.176,0,0.441,0.018,0.564,0.052
	c0.518,0.107,0.643,0.359,0.674,0.892c0.031,0.503,0.031,0.939,0.031,3.325v1.959c0,1.617-0.043,3.028-0.908,3.889
	c-0.625,0.627-1.479,0.846-2.162,0.846c-0.535,0-1.256-0.063-1.961-0.644c-0.771-0.626-1.223-1.583-1.223-3.852v-2.199
	c0-2.386,0-2.821,0.031-3.325c0.031-0.549,0.156-0.819,0.58-0.892c0.189-0.034,0.281-0.052,0.451-0.052
	c0.16,0,0.254-0.028,0.254-0.137c0-0.113-0.111-0.142-0.346-0.142c-0.563,0-1.553,0.048-1.928,0.048
	c-0.469,0-1.459-0.048-2.289-0.048c-0.234,0-0.346,0.028-0.346,0.142c0,0.109,0.096,0.137,0.268,0.137
	c0.219,0,0.484,0.018,0.609,0.052c0.52,0.107,0.643,0.359,0.676,0.892c0.029,0.503,0.029,0.939,0.029,3.325V29.727z"/>
<path fill="#FFFFFF" d="M198.534,34.964c0.832,0,1.707-0.144,2.49-0.641c1.131-0.737,1.475-1.82,1.475-2.73
	c0-1.493-0.691-2.541-2.568-3.996l-0.439-0.332c-1.305-0.988-1.664-1.538-1.664-2.26c0-0.94,0.707-1.61,1.865-1.61
	c1.018,0,1.477,0.465,1.713,0.768c0.324,0.402,0.402,0.893,0.402,1.03c0,0.188,0.049,0.284,0.16,0.284
	c0.127,0,0.17-0.124,0.17-0.472c0-1.223,0.063-1.678,0.063-1.879c0-0.112-0.076-0.158-0.221-0.188
	c-0.406-0.113-1.066-0.269-2.08-0.269c-2.18,0-3.623,1.238-3.623,2.963c0,1.272,0.596,2.368,2.32,3.717l0.719,0.563
	c1.303,1.005,1.537,1.744,1.537,2.512c0,0.831-0.689,1.787-2.098,1.787c-0.977,0-1.9-0.427-2.246-1.583
	c-0.076-0.266-0.139-0.6-0.139-0.802c0-0.128-0.02-0.266-0.156-0.266c-0.129,0-0.174,0.173-0.191,0.408
	c-0.014,0.251-0.076,1.191-0.076,2.053c0,0.344,0.047,0.423,0.297,0.534C196.917,34.851,197.622,34.964,198.534,34.964"/>
<path fill="#FFFFFF" d="M208.368,30.195c0,1.447,0,2.684-0.08,3.341c-0.051,0.451-0.141,0.802-0.453,0.863
	c-0.145,0.031-0.332,0.064-0.564,0.064c-0.189,0-0.25,0.043-0.25,0.125c0,0.109,0.105,0.153,0.311,0.153
	c0.629,0,1.619-0.044,1.979-0.044c0.438,0,1.426,0.044,2.459,0.044c0.17,0,0.299-0.044,0.299-0.153c0-0.082-0.082-0.125-0.248-0.125
	c-0.24,0-0.584-0.033-0.803-0.064c-0.473-0.062-0.564-0.412-0.613-0.849c-0.08-0.672-0.08-1.909-0.08-3.356v-6.426l1.979,0.046
	c1.395,0.031,1.816,0.469,1.85,0.878l0.02,0.173c0.012,0.232,0.043,0.313,0.17,0.313c0.092,0,0.123-0.097,0.143-0.252
	c0-0.407,0.045-1.49,0.045-1.818c0-0.233-0.016-0.33-0.123-0.33c-0.127,0-0.504,0.158-1.506,0.158h-6.211
	c-0.518,0-1.113-0.033-1.568-0.08c-0.393-0.03-0.551-0.19-0.676-0.19c-0.094,0-0.143,0.095-0.188,0.3
	c-0.031,0.124-0.33,1.553-0.33,1.802c0,0.175,0.035,0.25,0.143,0.25c0.092,0,0.145-0.062,0.168-0.188
	c0.035-0.125,0.113-0.312,0.271-0.549c0.234-0.344,0.611-0.423,1.52-0.452l2.34-0.063V30.195z"/>
<path fill="#FFFFFF" d="M217.463,30.197c0,1.44,0,2.682-0.074,3.339c-0.064,0.451-0.145,0.8-0.457,0.865
	c-0.143,0.029-0.326,0.063-0.564,0.063c-0.188,0-0.25,0.043-0.25,0.125c0,0.109,0.105,0.155,0.314,0.155
	c0.623,0,1.615-0.046,1.912-0.046c0.236,0,1.396,0.046,2.303,0.046c0.207,0,0.313-0.046,0.313-0.155
	c0-0.082-0.061-0.125-0.184-0.125c-0.191,0-0.535-0.033-0.77-0.063c-0.471-0.065-0.566-0.414-0.611-0.865
	c-0.078-0.657-0.078-1.898-0.078-3.355V29.96c0-0.095,0.047-0.122,0.123-0.122l1.367,0.027c0.109,0,0.205,0.019,0.279,0.111
	c0.203,0.237,0.93,1.301,1.555,2.162c0.875,1.21,1.473,1.947,2.146,2.307c0.41,0.223,0.803,0.299,1.682,0.299h1.488
	c0.188,0,0.299-0.033,0.299-0.155c0-0.082-0.063-0.125-0.191-0.125c-0.121,0-0.264-0.019-0.439-0.048
	c-0.238-0.052-0.877-0.158-1.756-1.067c-0.926-0.971-2.008-2.364-3.402-4.124c1.588-1.287,2.07-2.353,2.07-3.513
	c0-1.049-0.627-1.851-1.066-2.147c-0.848-0.58-1.898-0.677-2.887-0.677c-0.482,0-1.676,0.051-2.207,0.051
	c-0.33,0-1.322-0.051-2.154-0.051c-0.23,0-0.342,0.031-0.342,0.14c0,0.116,0.092,0.144,0.27,0.144c0.217,0,0.482,0.015,0.613,0.047
	c0.512,0.108,0.639,0.36,0.672,0.893c0.027,0.503,0.027,0.941,0.027,3.326V30.197z M219.317,23.908c0-0.127,0.029-0.187,0.143-0.219
	c0.152-0.048,0.436-0.063,0.83-0.063c0.922,0,2.398,0.645,2.398,2.873c0,1.285-0.453,2.005-0.922,2.351
	c-0.287,0.205-0.49,0.269-1.119,0.269c-0.393,0-0.859-0.051-1.188-0.16c-0.113-0.046-0.143-0.109-0.143-0.283V23.908z"/>
<path fill="#FFFFFF" d="M229.358,30.195c0,1.523,0,2.764-0.08,3.417c-0.047,0.457-0.141,0.726-0.457,0.787
	c-0.143,0.031-0.324,0.064-0.563,0.064c-0.189,0-0.252,0.043-0.252,0.125c0,0.109,0.109,0.153,0.314,0.153
	c0.629,0,1.619-0.044,1.977-0.044c0.424,0,1.412,0.044,2.451,0.044c0.168,0,0.291-0.044,0.291-0.153c0-0.082-0.076-0.125-0.25-0.125
	c-0.236,0-0.582-0.033-0.799-0.064c-0.469-0.062-0.582-0.346-0.625-0.771c-0.063-0.67-0.063-1.911-0.063-3.434v-2.759
	c0-2.382,0-2.82,0.031-3.323c0.031-0.55,0.154-0.817,0.582-0.895c0.186-0.03,0.311-0.048,0.467-0.048s0.252-0.028,0.252-0.157
	c0-0.094-0.127-0.122-0.332-0.122c-0.594,0-1.521,0.047-1.912,0.047c-0.451,0-1.441-0.047-2.039-0.047
	c-0.252,0-0.375,0.028-0.375,0.122c0,0.129,0.092,0.157,0.252,0.157c0.186,0,0.391,0.018,0.563,0.066
	c0.346,0.076,0.5,0.344,0.533,0.877c0.033,0.502,0.033,0.941,0.033,3.323V30.195z"/>
<path fill="#FFFFFF" d="M240.622,30.654c0.08,0,0.123,0.029,0.156,0.107l1.258,3.324c0.076,0.186-0.033,0.33-0.145,0.359
	c-0.158,0.019-0.221,0.047-0.221,0.144c0,0.105,0.188,0.105,0.477,0.122c1.25,0.033,2.395,0.033,2.957,0.033
	c0.584,0,0.725-0.033,0.725-0.155c0-0.111-0.08-0.125-0.205-0.125c-0.188,0-0.422-0.019-0.656-0.063
	c-0.332-0.082-0.787-0.301-1.381-1.713c-1.006-2.384-3.516-8.781-3.889-9.644c-0.158-0.361-0.252-0.501-0.395-0.501
	c-0.156,0-0.254,0.174-0.436,0.629l-3.938,9.846c-0.314,0.785-0.615,1.317-1.336,1.41c-0.127,0.017-0.344,0.035-0.486,0.035
	c-0.125,0-0.188,0.028-0.188,0.125c0,0.122,0.094,0.155,0.299,0.155c0.814,0,1.68-0.05,1.854-0.05c0.486,0,1.158,0.05,1.658,0.05
	c0.174,0,0.268-0.033,0.268-0.155c0-0.097-0.047-0.125-0.236-0.125h-0.23c-0.488,0-0.627-0.206-0.627-0.489
	c0-0.186,0.078-0.566,0.232-0.956l0.85-2.238c0.027-0.097,0.063-0.126,0.137-0.126H240.622z M237.436,29.865
	c-0.063,0-0.074-0.045-0.063-0.107l1.447-3.859c0.014-0.066,0.047-0.138,0.092-0.138c0.049,0,0.064,0.072,0.076,0.138l1.416,3.874
	c0.012,0.047,0,0.093-0.084,0.093H237.436z"/>
<path fill="#FFFFFF" d="M249.489,27.436c0-2.383,0-2.82,0.029-3.324c0.033-0.548,0.156-0.818,0.584-0.892
	c0.184-0.032,0.434-0.05,0.611-0.05c0.186,0,0.281-0.03,0.281-0.139c0-0.112-0.111-0.141-0.33-0.141
	c-0.613,0-1.76,0.044-2.135,0.044c-0.418,0-1.412-0.044-2.145-0.044c-0.238,0-0.348,0.029-0.348,0.141
	c0,0.108,0.096,0.139,0.268,0.139c0.203,0,0.393,0.018,0.516,0.05c0.52,0.106,0.646,0.36,0.678,0.892
	c0.029,0.503,0.029,0.94,0.029,3.324v2.762c0,1.442,0,2.682-0.08,3.339c-0.063,0.451-0.143,0.802-0.455,0.863
	c-0.137,0.031-0.326,0.064-0.561,0.064c-0.191,0-0.252,0.043-0.252,0.123c0,0.107,0.107,0.159,0.311,0.159
	c0.627,0,1.621-0.052,1.977-0.052c1.271,0,2.309,0.097,4.559,0.097c0.822,0,0.895-0.078,0.996-0.42
	c0.123-0.46,0.229-1.633,0.229-1.808c0-0.186-0.008-0.267-0.123-0.267c-0.125,0-0.156,0.095-0.17,0.237
	c-0.037,0.299-0.223,0.733-0.41,0.936c-0.389,0.427-1,0.441-1.832,0.441c-1.227,0-1.635-0.107-1.898-0.342
	c-0.328-0.283-0.328-1.367-0.328-3.372V27.436z"/>
</svg>
